<svg width="128" height="128" viewBox="0 0 128 128" fill="none" xmlns="http://www.w3.org/2000/svg">
<rect width="128" height="128" fill="white"/>
<path d="M112.916 65.6309C112.776 65.2739 112.867 65.0009 112.839 64.6859C112.72 64.8469 112.552 64.8959 112.398 64.9799C112.244 64.4199 112.412 63.7269 112.251 63.1669L112.328 63.0969L112.111 60.4089L111.964 60.2619C112.081 59.702 112.03 59.1199 111.817 58.5889C111.698 58.3369 112.083 57.9659 111.747 57.7209C111.53 55.9149 110.942 54.2629 110.655 52.4919C110.739 52.4079 110.802 52.3029 110.949 52.3449C111.082 52.4219 110.998 52.5829 111.019 52.7089C111.404 53.5139 111.446 54.4449 111.817 55.2499C111.915 54.8789 111.656 54.4799 111.6 54.0879C111.866 53.5699 111.278 53.2339 111.383 52.7089C111.383 52.4849 110.879 52.3869 111.173 52.1279C110.865 51.0429 110.655 49.9089 110.228 48.8659C109.927 48.3759 109.969 47.7529 109.5 47.3399C109.605 46.4719 108.737 45.8349 108.702 44.9459C108.121 44.3789 108.086 43.5949 107.617 42.9859C107.526 42.7479 107.498 42.4959 107.246 42.3349C106.896 41.4249 106.224 40.6339 105.874 39.7239C105.426 39.5209 105.58 38.9539 105.076 38.7019C105.23 38.3099 104.621 38.4429 104.782 38.0509C103.942 37.1409 103.494 36.0629 102.675 35.1459L102.591 35.2159C103.018 35.9369 103.494 36.6229 103.97 37.3229C104.047 37.4069 104.278 37.4139 104.187 37.6169C103.942 37.8759 103.781 37.4489 103.55 37.3999C102.899 36.2239 101.8 35.2369 101.149 34.0609C101.296 34.0119 101.394 33.8579 101.59 33.9139C101.688 34.2079 102.164 34.3479 102.101 34.7119C102.164 34.7329 102.206 34.6839 102.248 34.6419C100.078 32.0519 97.6071 29.2589 94.9191 27.0189L94.8491 27.0889L94.9961 27.2359C94.9751 27.3829 95.0521 27.5719 94.9191 27.6699C93.7221 27.0329 92.7841 26.2139 91.6571 25.4229C90.7891 24.6179 89.6901 23.9039 88.8291 23.0989L89.0461 22.9519L87.0861 21.6429H86.8691C85.9451 20.9569 84.8951 20.5719 83.8941 20.0399C83.4881 19.9489 83.1661 19.6479 82.7321 19.6059C80.6471 18.7323 78.4868 18.0505 76.2781 17.5689C75.9421 17.3449 75.4941 17.4499 75.1721 17.2189C74.9271 17.2749 74.6541 16.9599 74.3041 17.0719C74.0031 16.7569 73.4361 17.0929 73.1421 16.7849C72.7291 16.7079 72.2741 16.3159 71.9031 16.5679C71.8261 16.1479 71.2661 16.5749 71.3221 16.1339C71.5951 15.9659 71.8961 16.1199 72.1201 16.2809L72.1901 16.2109C72.2918 16.1945 72.3958 16.1991 72.4958 16.2244C72.5957 16.2497 72.6894 16.2951 72.7711 16.3579C72.7921 16.1479 73.0161 16.1199 73.2121 16.1409C73.9121 16.5539 74.7731 16.5889 75.5361 16.8689C75.9281 17.0719 76.5441 16.7359 76.8451 17.1629C77.2021 16.8619 77.5101 17.3659 77.7901 17.2889C77.4909 17.0164 77.1027 16.8622 76.6981 16.8549C76.2501 16.3299 75.5781 16.3649 74.9551 16.2739C74.7451 16.2109 74.4721 16.0779 74.2971 16.1269C74.0941 16.1969 73.9961 16.0289 73.8701 15.9099L73.7931 15.9799C73.2541 15.8819 72.6381 15.5599 72.1271 15.8399L71.9031 15.6229C71.4901 15.5739 71.0421 15.4199 70.6711 15.4759C69.8731 15.1609 69.0751 15.4969 68.2771 15.1819C67.5911 15.4619 67.3111 14.9719 66.6111 15.1119C66.4081 15.5739 66.2681 14.8389 66.0301 15.1819C65.8341 15.2729 65.4561 15.3499 65.3021 15.1119C65.2111 15.2449 65.0921 15.2729 64.9381 15.2589C64.8051 15.0909 64.6441 14.9999 64.4341 15.0419C64.0911 15.3359 63.6641 14.7479 63.4191 15.2589C63.3351 15.2519 63.2371 15.2729 63.1951 15.1819C63.0201 15.1539 62.9361 15.5809 62.7611 15.3289C62.4601 15.0839 62.0191 15.2029 61.6691 15.1819C60.7171 15.1679 59.7371 15.4899 58.6941 15.4759L58.5541 15.6229C56.8811 15.7419 55.2221 15.9029 53.6961 16.3509C53.1641 16.4489 52.6111 16.4979 52.1631 16.7849C51.3158 16.8882 50.4868 17.1072 49.6991 17.4359L49.6221 17.3659L49.4751 17.5059C45.6181 18.5699 41.8311 19.8019 38.5901 22.3709C37.5961 23.5329 36.4131 24.6249 36.1191 26.0739C35.9791 26.5289 36.1611 27.1309 35.6851 27.4529C35.9021 27.9079 36.2031 28.3349 36.3361 28.8319C36.5951 29.1399 36.1121 29.5109 36.4831 29.7769L36.9171 29.6299C37.2531 29.9519 37.4001 30.4629 37.8621 30.7919L38.1561 30.5749C38.8981 29.9659 38.6741 31.4149 39.3951 30.8689C39.5911 30.9879 39.5561 31.1839 39.7591 31.3029C39.7591 31.5409 40.0881 31.8349 39.7591 32.0309C39.8851 32.1079 39.8781 32.2339 39.9761 32.3249C40.1441 32.3109 40.3331 32.4999 40.4731 32.3249C40.6201 32.5349 40.7881 32.7309 40.8441 32.9759C40.7181 33.1649 40.5991 32.9199 40.4731 32.8989C40.3471 33.0249 40.4171 33.3259 40.4031 33.4099C40.8091 33.5429 41.1521 33.8229 41.5651 33.9209L41.3481 34.1309C41.2641 34.1239 41.1801 34.1449 41.1381 34.0609C40.9631 34.1449 41.1521 34.2499 41.1381 34.3549C41.0891 34.3969 41.0471 34.4529 40.9911 34.4249L41.0611 34.6419C40.9001 35.0199 40.6691 34.5159 40.4731 34.7889L40.5571 34.8589C40.7461 34.8099 41.0261 34.9779 41.1311 34.7119C41.5791 34.9079 40.8511 35.0549 41.2011 35.2929C41.1731 35.5239 41.1941 35.7899 40.9841 35.9439C40.8581 35.9229 40.6971 35.9999 40.6201 35.8739L40.2561 36.2379L40.4661 36.3849C40.6341 36.9379 40.2631 37.5119 39.8151 37.8409C39.9551 38.6109 40.0181 39.5349 40.9071 39.8709C41.2221 39.6959 41.5861 39.8499 41.8521 40.0109C42.0551 40.3889 42.5241 40.3959 42.8741 40.5919C43.6441 41.4389 44.8551 41.2359 45.6321 42.1109C46.6121 41.8239 47.9981 42.0759 49.1181 41.8939L49.5521 41.3199C49.2651 41.0469 49.7411 40.9699 49.8391 40.8089C49.7411 39.8219 50.7911 39.9339 51.2951 39.4299C51.7162 39.3955 52.1191 39.2426 52.4571 38.9889C52.6461 39.1639 52.7231 38.9819 52.8981 38.9189C53.3181 39.1639 53.6751 38.6109 54.0601 38.7719C54.1651 38.6879 54.0951 38.3939 54.3401 38.4849C54.5501 38.7719 54.9911 38.5339 55.2151 38.6319C55.2361 38.5409 55.1591 38.3939 55.2851 38.3379C55.6071 38.6459 55.9921 38.2189 56.3001 38.0509L56.4471 38.3449C56.7761 38.3099 57.2031 38.1629 57.3151 37.9039L57.4621 38.1979C57.5601 38.1769 57.7001 38.2539 57.7491 38.1279L57.4621 37.9039C57.8891 37.3369 58.1621 38.4639 58.5471 37.9739L58.4701 37.9039C58.4561 37.8409 58.5051 37.8059 58.5541 37.7569C58.6241 37.7359 58.6591 37.7849 58.7011 37.8339L58.7711 37.7569C58.9391 37.7779 59.1561 37.7009 59.2821 37.8339C59.3101 38.0509 59.0581 37.9039 58.9881 38.0509L59.0581 38.1279C59.2331 38.0999 59.4711 38.2119 59.5691 37.9809C59.5201 37.9109 59.3941 37.8619 59.4221 37.7639C59.9191 37.3929 59.9681 38.0999 60.3601 38.1979C60.6051 38.1139 60.9271 38.0299 61.1511 38.1279C61.5081 38.0019 62.0401 37.8619 62.3831 38.1279C62.4531 37.9809 62.7121 38.1279 62.6771 37.9109C62.5791 37.9319 62.5371 37.8129 62.4741 37.7569C62.4251 37.4839 62.7401 37.4769 62.8311 37.3229C62.8521 37.5609 62.8451 37.9179 63.1251 38.0509L63.4191 37.7569C63.1251 37.2249 63.7271 37.7849 63.8531 37.3999C64.0211 37.4979 64.3291 37.4069 64.3641 37.6939C64.5601 37.3439 65.1411 37.7779 65.2251 37.3229C65.3931 37.3299 65.5751 37.2879 65.6661 37.4699C65.7781 37.5959 65.7781 37.8549 65.6661 37.9809C66.0581 38.3869 66.4641 38.2819 66.9751 38.1979C67.2201 38.5619 67.7661 38.3449 67.9201 38.7789L68.0601 38.6319C68.2071 38.8769 68.5571 38.7159 68.7111 38.7789C68.7321 38.8419 68.6831 38.8769 68.6411 38.9259L68.9351 39.1429C69.1311 39.0939 69.4111 39.2689 69.5161 38.9959C69.6701 39.0169 69.8941 38.9329 70.0201 39.0659C70.0621 39.2059 69.9501 39.2689 69.8731 39.3599C69.8101 39.3809 69.7751 39.3319 69.7261 39.2829V39.3599C69.8311 39.4929 70.0201 39.4089 70.1671 39.4299C70.1741 39.3459 70.1531 39.2549 70.2371 39.2129C70.3071 39.1919 70.3491 39.2409 70.3841 39.2829C70.4331 39.1499 70.5801 39.2339 70.6781 39.2129C70.6921 39.6819 71.1751 39.6819 71.4761 39.8639C71.7141 39.7449 71.3011 39.6259 71.5461 39.4999C71.7421 39.5699 71.8821 39.7939 72.0501 39.9409C72.2565 39.8667 72.4788 39.8477 72.6949 39.8857C72.911 39.9238 73.1134 40.0176 73.2821 40.1579C73.7791 40.2139 74.1571 40.6059 74.6611 40.6689C74.9341 40.4659 74.9831 41.1799 75.3891 40.9559C75.6761 41.1519 76.1101 40.9839 76.2641 41.4599L76.4041 41.3199C76.5861 41.6209 77.0271 41.5999 77.2791 41.9009C77.5801 41.6349 77.3701 42.1529 77.6431 42.1879C77.6851 42.1459 77.7201 42.0969 77.7901 42.1179C77.8881 42.7689 78.4131 42.0129 78.5881 42.6289C78.8121 42.7969 79.0641 42.8949 79.3161 42.9929C79.6801 43.5879 80.3031 43.5669 80.6881 44.0849C80.9821 43.7839 80.8981 44.3439 81.1991 44.2319C81.3041 44.6099 81.6821 44.6449 81.8501 45.0299C81.9971 44.9879 82.1651 44.7499 82.2911 45.0299C82.0181 45.7229 83.2151 45.4289 83.0821 46.1219L83.2991 45.9049C83.6806 46.3138 83.997 46.7789 84.2371 47.2839L84.3841 47.1369C84.5101 47.1579 84.6711 47.0809 84.7481 47.2069C84.7411 47.2909 84.7691 47.3819 84.6781 47.4239C84.6151 47.4449 84.5731 47.3959 84.5311 47.3539L84.4541 47.4239L84.7481 47.7179L84.8951 47.5009L85.4761 47.8649C85.3571 47.9839 85.1961 48.2009 85.0351 48.0119V48.0819H85.1051C85.2101 48.1239 85.1751 48.2219 85.1891 48.2989C85.3851 48.7749 85.7141 48.3829 85.9801 48.5159C85.9591 48.6139 86.0431 48.7539 85.9101 48.8099C85.8961 49.4119 86.4071 49.6079 86.6381 50.1189L86.7851 49.9719C86.9881 49.9579 86.9111 50.1959 87.0791 50.2659L87.1491 50.1959C87.2331 50.2029 87.3241 50.1749 87.3661 50.2659C86.7291 50.8399 87.6041 51.3299 87.7301 51.8619C88.6961 51.4769 87.6811 52.5829 88.3111 52.8069L88.3881 52.7369C88.5828 52.8269 88.7391 52.9832 88.8291 53.1779C88.7521 53.2269 88.7101 53.3529 88.6121 53.3249C88.7451 53.4929 88.6331 53.8849 88.9831 53.8359L88.9061 53.9059C88.8851 53.9689 88.9411 54.0109 88.9831 54.0529C89.1441 53.8569 89.3261 54.1019 89.4871 54.1299C89.4101 54.2559 89.4241 54.3959 89.2771 54.4939C89.2351 54.4519 89.1861 54.3959 89.1301 54.4239L89.5711 54.8579L89.4941 54.9279C89.4311 54.9489 89.3891 54.8999 89.3471 54.8579L89.2771 54.9279C89.3191 55.3619 89.8021 55.0399 89.9281 55.4389L90.0751 55.2919C90.1801 55.3129 90.3131 55.2289 90.3691 55.3619C90.3481 55.4879 90.4321 55.6419 90.2921 55.7259L90.3691 55.7959C90.2431 56.0339 90.1381 55.6279 90.0051 55.8659C90.0121 56.0199 90.1871 56.0829 90.2991 56.1599C89.9141 56.7409 90.6841 57.0209 90.6631 57.5389C90.8801 57.7139 90.4951 58.3369 91.0271 58.1899C91.1741 58.2809 91.1741 58.4279 91.2371 58.5539C91.1601 58.7639 91.0901 59.1489 91.2371 59.2819L91.1671 59.3519C91.0411 59.6599 91.2091 60.0519 91.4611 60.2969C91.3071 60.7029 91.4751 61.2349 91.3911 61.6059C91.5171 61.6269 91.6781 61.5499 91.7551 61.6759C91.7761 61.7389 91.7271 61.7809 91.6851 61.8229L91.9021 61.9699C91.7621 62.1379 91.9441 62.4319 91.6851 62.5509C91.6361 62.6419 91.4751 62.7609 91.6151 62.8449C91.3701 63.1389 91.7691 63.4259 91.5311 63.7199C91.7971 63.9089 91.7411 64.3149 91.7481 64.5179C91.5381 64.7419 91.8111 64.9379 91.9651 65.0989C91.9161 65.1479 92.0001 65.2949 91.8671 65.3439C91.3211 65.4909 91.9651 65.8059 91.9371 66.0719C91.3631 66.2329 91.8391 66.8209 91.5731 67.2339C91.8181 67.5489 91.4541 67.8429 91.7201 68.1019C91.8181 68.5149 91.5871 68.7879 91.3561 69.0469L91.4261 69.1169C91.1321 69.7679 91.2581 70.5939 90.9151 71.2309C90.9474 71.5826 90.8743 71.936 90.7051 72.2459C90.7541 72.8689 90.3551 73.3099 90.1941 73.8489C90.0261 74.2199 89.9351 74.6189 89.8301 75.0039C89.4171 75.1929 89.8371 75.7179 89.3891 75.8789C87.551 79.6187 85.0433 82.99 81.9901 85.8259C79.9671 87.0369 78.1191 88.6889 75.8861 89.3819C75.8371 89.5289 75.6271 89.8159 75.4451 89.5989C75.1791 89.9279 74.7381 89.8229 74.4231 90.0329C74.1571 90.1309 73.8631 90.3759 73.6251 90.3269C73.1211 90.5999 72.5611 90.7189 72.0291 90.9079C71.0281 91.2649 69.9361 91.3909 68.9071 91.6359C68.6971 91.6079 68.5291 91.9369 68.3261 91.7199C67.6051 91.9509 66.4921 91.8599 65.7851 92.0839C65.2531 91.8879 64.7211 92.1329 64.1891 92.1609C62.9361 92.2379 61.6691 92.0419 60.4861 91.8599C60.1361 92.1609 59.7581 91.6569 59.3241 91.7129C58.8831 91.9229 58.5611 91.4189 58.0921 91.4959C57.8961 91.5589 57.9801 91.8739 57.7211 91.7899C57.5741 91.3139 57.0701 91.3839 56.7061 91.2859C56.4681 90.8309 56.0201 91.2159 55.6141 90.9849C55.5651 90.4949 55.0961 90.9989 54.8861 90.5509C54.5011 90.8939 54.3471 90.2499 54.0111 90.2569C53.7241 90.0329 53.2551 90.2709 53.0661 89.8159C52.9121 89.8159 52.7371 89.7879 52.6251 89.8859C52.5831 89.8439 52.5271 89.8019 52.5481 89.7389L52.3311 89.8159C52.3101 89.1299 51.4701 89.3399 51.2601 88.7799L51.4071 88.6329L51.3371 88.5489L51.1201 88.7729C50.8751 88.6119 50.5601 88.6119 50.3221 88.4019L50.3921 88.4789C50.0001 88.8289 49.8531 88.1709 49.4471 88.1149L49.5171 87.8979C49.4471 87.8489 49.3981 87.7229 49.3071 87.7509C49.2861 87.8489 49.3701 87.9889 49.2301 88.0519C49.1041 88.0519 49.0411 87.9049 48.9361 87.8349L49.1531 87.6879L49.0061 87.5409C48.7121 87.3519 48.4181 87.6739 48.2781 87.2539C47.8371 87.3729 47.7181 86.8409 47.4801 86.5259C47.4031 86.5749 47.3611 86.7009 47.2701 86.6729C47.0951 86.6029 47.2841 86.4909 47.2701 86.3859C47.1441 86.3019 47.2211 86.0009 46.9761 86.0849C46.7801 85.4129 46.0311 86.2389 45.8841 85.4409C45.5831 85.4269 45.3171 84.9579 45.0861 84.7829C45.0791 84.8669 45.1071 84.9579 45.0091 84.9999C45.0441 84.6149 44.5471 84.4469 44.4281 84.1249L44.3581 84.1949C44.2461 84.2229 44.2111 84.1039 44.1411 84.0479C44.0081 83.7469 44.3441 83.8309 44.4281 83.6069L44.2811 83.4599C43.9871 83.5159 43.8191 83.8519 43.4901 83.8309C43.4691 83.7049 43.2171 83.5929 43.4061 83.4599C43.4901 83.5509 43.6721 83.4739 43.7771 83.3899C43.7281 83.2499 43.5811 83.1589 43.5601 83.0189C43.6371 82.8439 43.7491 83.0329 43.8541 83.0189C43.7561 82.8929 43.7631 82.6689 43.5601 82.6549C43.3081 82.7739 43.5251 82.9209 43.4901 83.0959C43.2031 82.9839 43.0701 83.6979 42.8251 83.2429C42.9301 82.8509 42.4541 82.8789 42.3281 82.5919L42.5381 82.2909L42.3281 82.1439C42.4191 81.9759 42.6991 82.1929 42.6921 81.9339C42.5591 81.7939 42.3491 81.8779 42.1811 81.8569C42.0411 81.3739 41.4671 81.4859 41.3061 81.0589L41.3761 80.9889C41.5231 80.9469 41.5791 81.0589 41.6701 81.1359C41.6631 81.3949 42.0551 81.2479 42.1111 81.2829C42.1321 81.2199 42.0831 81.1779 42.0341 81.1359C41.9431 81.0799 41.8241 80.9259 41.7471 81.0659L41.6631 80.9889C41.7051 80.6599 41.9571 80.9189 42.1041 80.7789C41.9571 80.6459 41.8381 80.4639 41.6631 80.4079C41.7051 80.5199 41.8101 80.6739 41.6631 80.7789C41.3691 80.8629 41.5161 80.5199 41.3691 80.4079C41.0471 80.4499 41.2991 80.7019 41.1591 80.8489C40.9001 80.7089 40.8651 80.3659 40.7181 80.1209C41.002 80.0888 41.2875 80.1664 41.5161 80.3379C41.6141 80.2959 41.5791 80.1909 41.5861 80.1209C41.2921 80.0719 41.1171 79.7359 40.7881 79.7569C40.7951 79.5119 40.4241 79.3159 40.5781 79.1059C40.7741 79.2529 40.8861 79.3719 40.9421 79.6029C41.0261 79.6029 41.1101 79.6169 41.1591 79.5329L41.0121 79.3859C41.1451 78.8819 40.5501 79.2179 40.4311 78.8049L40.7111 78.6299C40.6831 78.5249 40.6621 78.4269 40.5641 78.3359L40.3471 78.4829C40.1931 78.3989 40.1861 78.2519 40.2771 78.1259C40.1441 78.1119 40.0811 78.2729 39.9831 78.3359C40.1091 78.4409 40.3331 78.4269 40.3471 78.6299C40.1231 78.6439 39.7941 78.4899 39.5491 78.3359C39.6191 77.9999 39.1641 77.8739 39.0941 77.6149C39.3531 77.2719 38.9541 77.0269 38.8771 76.7399C38.6181 76.6349 38.5341 76.9359 38.3731 77.0269C38.2821 76.9499 38.2191 76.8379 38.0791 76.8869C38.1211 76.6349 37.6661 76.4949 37.9321 76.2359C37.9181 76.0749 37.7081 75.6969 37.4981 75.9419C37.2531 75.7739 37.6731 75.6829 37.6451 75.5149C37.8621 75.6619 38.2191 75.8859 38.0791 76.2429C38.4011 76.2499 38.7301 76.2779 38.9541 76.5229C39.0031 76.4389 39.1641 76.3129 39.0241 76.2289C39.0171 76.1029 39.1711 76.0399 39.2411 75.9419L39.0941 75.8019L39.0171 75.8719C38.8351 75.9489 38.7861 75.7249 38.6601 75.6549C38.6321 75.5499 38.7581 75.5149 38.8071 75.4379C38.8491 75.4869 38.8841 75.5289 38.9541 75.5149C38.9401 75.4239 38.9751 75.3329 38.8771 75.2909C38.2821 75.4729 38.2891 74.7589 38.0091 74.4929C37.9741 74.3879 37.8621 74.2199 38.0091 74.1289C38.3241 74.4229 38.4571 74.9199 38.8071 75.0739C38.3031 74.8079 38.9401 74.5209 38.6601 74.1989C38.5551 74.1849 38.4501 74.3739 38.3661 74.1989L38.5131 74.0519C38.3521 74.0519 38.2051 73.8209 38.3661 73.6949C38.3241 73.4009 37.8411 73.1139 38.2261 72.8199C38.0301 72.8479 37.9041 73.0509 37.7151 73.1139C37.3931 72.9179 37.7151 72.6309 37.7151 72.3859L37.7851 72.4559L37.8621 72.3859L37.7151 72.2389L37.6451 72.3159C37.4911 72.1829 37.2601 71.9589 37.3511 71.6579C37.2811 71.2519 37.6731 71.6019 37.7851 71.4409C37.6381 71.3219 37.7991 71.0839 37.5751 71.0069L37.5051 71.0769L37.4281 71.0069C36.8821 71.1609 37.2881 70.4189 36.7701 70.4959C37.1551 70.2019 36.5811 69.8589 36.7701 69.5509L37.3511 70.1319C37.4491 70.0899 37.4141 69.9849 37.4211 69.9149C37.3791 69.8239 37.2741 69.8519 37.2041 69.8449C36.9941 69.3059 36.5181 69.3479 36.1191 69.0469C36.0981 68.9839 36.1471 68.9489 36.1891 68.8999C36.3221 68.8509 36.3571 68.9839 36.4831 68.9699C36.4621 68.7739 36.2521 68.6549 36.1891 68.4729C36.3361 68.2279 36.4831 68.6339 36.6301 68.3959C36.7981 68.5149 36.8401 68.6759 36.9241 68.8299L36.9941 68.7599L36.9241 68.6829C36.9311 68.6059 36.9101 68.5149 36.9941 68.4729C37.0431 68.5569 37.1411 68.5289 37.2111 68.5429C36.9381 68.1509 37.4421 67.7169 37.0641 67.3739C36.9801 67.3809 36.8891 67.3529 36.8471 67.4439L36.9171 67.5209C37.3791 67.7799 36.9101 68.1019 36.8471 68.3959L36.7001 68.2489C36.6791 68.1089 36.7281 68.0039 36.7701 67.8849L36.4131 67.7379C36.2381 67.4089 36.3431 67.1359 36.4131 66.7929C36.6091 66.8069 36.6791 67.1289 36.9241 67.0099C37.2321 66.5759 36.4691 66.7929 36.5601 66.3589C36.3221 66.4639 36.4201 66.7649 36.1891 66.7929L36.1121 66.7229C36.1681 66.5059 36.0001 66.1909 36.2661 66.0719C36.4411 65.6169 35.9861 65.5259 35.8251 65.2739L36.1891 64.9799L36.1191 64.9099L36.0491 64.9799C35.9861 65.0079 35.9441 64.9519 35.9021 64.9099C35.9091 64.8329 35.8881 64.7349 35.9791 64.6929C36.0421 64.6719 36.0771 64.7209 36.1261 64.7699C36.3431 64.6439 36.0141 64.5739 36.1261 64.4059C35.9231 64.5179 35.5941 64.5249 35.4681 64.2589C35.4891 64.1609 35.4121 64.0209 35.5381 63.9649L35.8321 64.2589L35.9091 64.1889C35.8951 63.8319 35.3351 63.6989 35.4051 63.3139C35.7061 63.0759 35.5661 63.5799 35.7551 63.6779C35.9301 63.6919 36.0561 63.5939 36.1891 63.5309C36.2171 63.3629 36.0351 63.4259 35.9721 63.3139C35.9791 63.2369 35.9581 63.1389 36.0421 63.0969C36.0001 63.0199 35.8741 62.9779 35.9021 62.8729C36.0001 62.5999 36.0701 62.4179 35.7551 62.2219C35.7341 62.1589 35.7901 62.1239 35.8321 62.0819C36.065 62.1249 36.2727 62.2551 36.4131 62.4459C36.6301 62.5369 36.8471 62.8519 37.0641 62.7329C37.0571 62.6559 37.0851 62.5579 36.9941 62.5159C36.7421 62.7609 36.7491 62.3829 36.5531 62.2989C36.9451 61.9769 36.3991 61.6899 36.1891 61.4239L36.3361 61.2769C36.2521 61.0459 36.5531 60.8289 36.1891 60.7729C36.2101 60.6469 36.1261 60.4929 36.2661 60.4089C36.4061 60.3669 36.4691 60.4789 36.5531 60.5559C36.5111 60.8919 36.9591 60.8359 36.9941 61.1369L37.0641 61.0599L36.5531 60.4089C36.4691 60.0939 36.7211 59.9189 36.6301 59.6109C36.1191 59.9189 36.4761 59.0929 35.9791 59.1769C35.9861 59.0999 35.9651 59.0019 36.0491 58.9599C36.3081 59.0019 36.4341 59.1699 36.5531 59.3939C36.8891 59.2889 36.6861 59.7299 36.8471 59.7579C37.0221 59.6809 36.9381 59.4989 37.0641 59.3939C36.8471 59.1769 37.1761 58.9179 37.0641 58.7429C36.8471 58.7079 36.9941 58.9669 36.8471 59.0299C36.6651 59.0439 36.7001 58.8339 36.6301 58.7429L36.9241 58.5959C36.9241 58.3929 36.4831 58.2809 36.7001 58.0849C36.8121 58.0569 36.8471 58.1759 36.9171 58.2319L37.2111 57.9379C36.9871 57.8609 37.1481 57.6229 36.9941 57.5039L36.9241 57.5739C36.8191 57.6089 36.7701 57.4829 36.7001 57.4339C36.6791 57.3709 36.7281 57.3289 36.7701 57.2869C36.8541 57.2939 36.9381 57.2659 36.9801 57.3569L37.0571 57.2869C37.1971 57.2799 37.2601 57.4339 37.3511 57.5039L37.4211 57.4339C36.8331 57.0419 37.3301 56.6499 37.2811 56.1249C37.4351 56.1039 37.5611 56.1389 37.6521 56.2719L37.7221 56.1949L37.4281 55.8309C37.4141 55.7329 37.5961 55.6209 37.4281 55.5369L37.5051 55.4669C37.8901 55.4039 37.5331 55.7049 37.7221 55.8309L37.7921 55.7609C38.0511 55.5579 37.8481 55.3899 37.6451 55.2569C37.6311 54.9909 37.5541 54.7949 37.7851 54.6759L38.0091 54.8929C38.0301 54.9559 37.9811 54.9909 37.9321 55.0399L38.0091 55.1099L38.0791 55.0399C38.1771 54.7599 37.9461 54.6269 37.7851 54.4589C37.8061 54.3609 37.7291 54.2209 37.8621 54.1649C37.7641 54.0389 37.5891 53.9549 37.5681 53.8009C37.8201 53.5769 38.0091 53.9479 38.2261 54.0179C38.1281 53.8779 38.1001 53.7029 37.9321 53.5839C38.4151 53.0939 37.6241 52.9609 37.7851 52.4219L37.4981 52.4989C37.2951 52.3099 37.6661 52.1839 37.6451 51.9879L37.8551 52.1349C37.7851 51.8619 37.4911 51.8689 37.4981 51.5539C37.6171 51.4349 37.7221 51.3159 37.8621 51.2599L37.6521 51.0429C37.7501 50.7979 37.9531 50.7139 38.0791 50.5389L37.9321 50.3919C37.9391 50.3079 37.9181 50.2169 38.0091 50.1749C38.1001 50.1959 38.2471 50.1189 38.2961 50.2449L38.3731 50.1749L38.0791 49.8809C38.0861 49.8039 38.0651 49.7059 38.1561 49.6639L38.0791 49.5939C38.0511 49.4889 38.1771 49.4469 38.2261 49.3769C38.2891 49.3559 38.3311 49.4049 38.3731 49.4539L38.4431 49.3769L38.2961 49.2299C38.473 48.8175 38.5475 48.3684 38.5131 47.9209C38.8141 47.7739 38.7301 47.4589 38.9541 47.2699C38.6671 46.7169 39.5001 46.7169 39.0241 46.2549C38.7371 46.2339 38.7301 46.6469 38.4431 46.6889L38.3731 46.6189L38.2961 46.6889L38.4431 46.8359C38.1491 47.0669 38.3381 47.2419 38.2961 47.4869C37.8831 46.7869 37.8691 47.8859 37.4981 47.9279L37.4281 47.8509L37.5051 47.7809C37.2951 47.2209 37.9741 47.0319 37.9461 46.5489L37.2811 47.4869L37.2111 47.4169C37.2181 47.3399 37.1971 47.2419 37.2811 47.1999L37.2111 47.1299C37.0921 47.4659 36.8541 47.7599 36.8471 48.1379C36.5041 48.5369 36.3711 49.0059 35.9791 49.3769C35.8881 49.3349 35.9161 49.2369 35.9021 49.1599C35.9651 48.6839 36.6721 48.4739 36.4061 47.8509C37.0991 46.8849 37.3161 45.7369 38.2261 44.8759C37.6941 45.2959 37.2321 46.0099 36.8471 46.6189C35.6501 48.1939 34.9431 50.0349 33.9421 51.6239C33.6411 51.2879 34.2151 51.0429 34.0121 50.7489L33.7251 51.1199C33.6061 50.7489 33.9001 50.3639 34.0891 50.0279C34.1311 49.1599 34.8381 48.5719 34.8871 47.7039C35.1811 47.4169 35.2791 46.9899 35.5381 46.7589C35.5521 46.1359 36.3991 45.6739 36.0491 45.0859L36.2661 44.8689C36.3291 44.8479 36.3711 44.8969 36.4131 44.9459C36.7001 44.8479 36.4481 44.5189 36.6301 44.3649L36.7001 44.4349C36.8961 44.3089 36.6511 44.1969 36.6301 44.0709C36.0001 45.0719 35.1041 46.0309 34.5231 46.9759L34.4531 46.9059L34.3061 47.1229C34.2291 47.1159 34.1381 47.1369 34.0891 47.0529C34.3341 46.8639 34.4321 46.6119 34.5931 46.4019C34.8731 45.2539 35.6781 44.3369 36.3361 43.3499C35.1811 44.5609 34.5091 46.1709 33.4381 47.4169L33.3611 47.3469C33.3401 47.2769 33.3891 47.2419 33.4381 47.1999C33.5851 46.9409 34.0821 46.5559 33.6551 46.3249C34.2221 46.1849 34.2641 45.5829 34.4531 45.1629C34.3061 45.2679 34.1591 45.5059 34.0121 45.6739C33.8441 45.5969 34.0261 45.4849 34.0121 45.3799L33.7251 45.2399C33.7461 45.1419 33.6691 45.0019 33.7951 44.9459C33.9701 44.9179 34.0611 45.3379 34.2361 45.0929C34.1801 44.9459 34.2431 44.6729 34.0191 44.6589C34.0261 44.5819 34.0051 44.4839 34.0961 44.4419L34.2431 44.5889C34.3061 44.6099 34.3481 44.5609 34.3901 44.5119C34.2991 44.4279 34.1871 44.3579 34.2361 44.2179C34.3131 44.0429 34.4251 44.2319 34.5301 44.2179L34.3831 44.0079L34.1661 44.2179C34.0961 44.2459 34.0611 44.1899 34.0191 44.1479C34.3341 43.5389 34.8801 43.0139 35.1811 42.4049C33.3751 44.5259 31.3311 46.6679 30.0991 49.0829C29.3291 49.9859 29.0771 51.2319 28.3561 52.2049C27.6281 52.0089 28.5381 51.4279 28.1321 50.9729C28.3001 50.5179 28.3701 50.0069 28.6431 49.5939C28.6217 48.9731 28.8009 48.3619 29.1541 47.8509C29.3991 47.6059 29.2241 47.1789 29.5881 46.9759C29.8261 46.2619 30.3721 45.6809 30.5331 44.9459C30.7081 44.7079 30.7571 44.4139 31.0371 44.2179C31.2471 43.5739 31.8421 43.0839 32.1291 42.4749C31.7581 42.7339 31.4011 43.3149 31.0371 43.6369C31.0721 44.0149 30.4911 43.9449 30.5961 44.3649C30.1971 44.5189 30.4001 45.0439 29.9521 45.2399C30.0011 45.5969 29.3991 45.6879 29.5181 46.1149C28.9861 46.5909 28.9931 47.2839 28.5031 47.7809C28.4891 47.8859 28.6711 47.9909 28.5031 48.0749C28.4331 48.0959 28.3981 48.0469 28.3561 48.0049C28.3071 48.0399 28.2721 48.0889 28.2091 48.0679C28.1601 47.6549 28.5521 47.2489 28.7131 46.8359C28.1251 47.3539 27.8171 48.1099 27.4811 48.7959C27.3971 49.1669 26.8511 49.4399 26.9701 49.8109C26.9823 49.9344 26.9532 50.0585 26.8874 50.1636C26.8215 50.2688 26.7225 50.3491 26.6061 50.3919C26.5711 51.0429 26.1091 51.3299 26.1021 51.9879C25.5001 52.5549 25.5141 53.3809 25.0871 54.0179C25.1221 54.1229 25.2341 54.2909 25.0871 54.3819C24.8771 54.3609 24.8491 54.1369 24.8701 53.9479C25.1291 53.4859 24.9681 53.1079 25.2341 52.6389C25.5911 52.4079 25.5141 51.9109 25.5281 51.6239C25.5911 51.6029 25.6261 51.6519 25.6751 51.6939L25.7451 51.6239C25.8361 51.4699 25.9061 51.1409 25.6751 51.0429C25.4931 51.1269 25.7171 51.4279 25.4511 51.4069C25.4371 50.9099 25.4371 50.2589 25.7381 49.8109C26.0741 49.9649 25.8781 49.3629 26.1791 49.2299L26.1021 49.1529C25.9761 48.8449 26.1441 48.4599 26.3891 48.2149L26.4661 48.2849C26.5081 48.4249 26.4031 48.4879 26.3191 48.5789L26.3891 48.6489C26.6831 48.5439 26.4241 48.2219 26.6061 48.0679L26.3191 47.9279L26.5361 47.5639C26.5221 47.4309 26.6971 47.1089 26.6831 46.9759C26.7111 47.1509 26.2911 47.2419 26.5361 47.4169L26.0321 47.9279C26.1721 48.3899 25.4931 48.3199 25.6681 48.7959C25.2551 49.0479 25.4581 49.5379 25.2971 49.8879C24.8421 49.8249 25.1991 50.3639 24.7931 50.4619L24.8701 50.5319C24.5061 50.8329 25.0171 51.4839 24.4361 51.7009L24.5131 51.7709C24.4991 51.9249 24.5271 52.0929 24.4361 52.2119C23.9531 52.3869 24.1911 52.9679 23.9251 53.2969C24.1211 53.7939 23.5681 53.9689 23.5541 54.4589C23.5681 54.7529 23.3301 55.2149 23.4141 55.5439C22.7981 56.9999 22.8401 58.7429 22.5461 60.3389C22.3851 60.7029 22.4971 61.2349 22.2591 61.6409C21.8041 61.5779 22.2311 61.1509 22.0421 60.8429C22.2101 60.7659 21.9861 60.4579 22.2591 60.4859C22.1611 60.2409 21.8391 59.9959 21.9651 59.7579C22.0071 59.7999 22.0421 59.8489 22.1121 59.8279C22.0211 59.5479 22.3501 59.1699 22.2591 58.8829C22.2311 58.8199 22.2871 58.7849 22.3291 58.7429C22.3361 58.5049 22.6511 58.2109 22.3291 58.0149L22.1121 58.3789C22.1261 58.7359 22.1331 59.1629 21.8181 59.3239C21.8391 59.0439 21.7621 58.5539 21.9021 58.2319C22.2101 57.9449 21.8951 57.6789 22.1121 57.3569C21.9861 56.9999 22.3081 56.6359 22.3991 56.2719C22.7701 56.8669 22.0001 57.4129 22.3991 57.8679C22.7421 57.7139 22.5391 57.4619 22.5461 57.2169C22.9871 56.0269 23.1131 54.7039 23.5611 53.5139L23.4911 53.4439C23.9251 53.0379 23.7081 52.6389 24.0721 52.2119C23.7571 51.8269 24.4571 51.7009 24.2121 51.2599C24.5971 51.0359 24.3381 50.4759 24.7161 50.3149C24.7021 49.9649 25.0241 49.6429 25.0101 49.3769L25.8851 47.4169C25.5491 47.5219 25.5141 47.8649 25.4511 48.1379C25.2831 48.4809 25.2201 48.8589 24.9401 49.1529C24.8071 49.2019 24.7371 49.0899 24.6531 49.0129C25.0941 48.4249 24.9751 47.6129 25.3041 46.9759C25.4231 46.7379 25.0941 46.5909 25.3041 46.3949L25.4511 46.5419L25.5281 46.4719C25.2621 46.1499 25.7731 45.8839 25.5981 45.6039C25.2691 45.8769 25.1571 46.3739 24.9401 46.7659C24.8141 46.6819 24.8281 46.5559 24.7231 46.4719C24.5971 46.7869 24.3451 46.9549 24.6531 47.2699C24.7441 47.5779 24.5271 47.8229 24.2891 47.9279C24.0301 47.7389 24.5761 47.6129 24.2891 47.4169C24.0091 47.6199 23.9461 48.0469 23.7781 48.3619L23.9251 48.5089L24.0721 48.3619L24.1421 48.4319C24.0441 48.5789 24.0581 48.8309 23.8551 48.8659C23.3511 48.8099 23.9531 48.4459 23.5611 48.2849C23.9041 47.1299 24.6811 46.1709 25.0171 45.0159L25.0941 45.0859C25.1991 44.9669 25.2131 44.7289 25.1641 44.6519C25.0941 44.6309 25.0591 44.6799 25.0101 44.7219L25.0871 44.7919L24.7931 44.9459C24.3661 45.7859 23.9461 46.6959 23.1901 47.3399C23.5471 47.9489 22.4901 47.6759 22.9031 48.2149C22.8191 48.4599 22.6791 48.7609 22.3991 48.8659L22.4761 48.9359C22.5531 49.1249 22.3291 49.1809 22.2591 49.2999C22.2031 49.6219 22.0281 49.8879 21.8951 50.1749C21.9231 50.5459 21.5801 50.8469 21.7481 51.1899C21.0341 52.0999 21.0831 53.3179 20.5861 54.3119C20.1661 55.4809 19.9561 56.7339 19.6411 57.9449L19.4241 57.8749L19.6411 58.1689L19.4241 58.3789C19.3751 58.8619 19.5501 59.3379 19.2771 59.8279C19.4311 60.0939 19.1301 60.3459 19.1301 60.6259C19.3471 60.8569 19.0111 61.1299 19.2001 61.3539L19.1301 61.4239C18.9901 61.4659 18.9271 61.3609 18.8361 61.2769C18.6751 61.1299 18.4931 61.1299 18.3251 61.2769C18.2411 61.1999 18.2201 61.0879 18.1921 60.9899C18.2411 60.8569 18.3881 60.9409 18.4861 60.9199C18.5351 60.8359 18.6961 60.7099 18.5561 60.6259C18.5351 60.4789 18.5701 60.3529 18.6961 60.2619L18.6191 60.1919C18.6961 59.8979 18.4441 59.4079 18.8361 59.3169C18.8781 59.1769 18.7661 59.1139 18.6891 59.0229L18.5561 59.1769C18.5281 59.0299 18.2901 58.8829 18.4861 58.7429C18.1291 58.3579 18.7031 57.9239 18.4861 57.5109C18.8641 57.4129 18.8851 57.1469 19.0601 56.8529L18.9901 56.7759C18.8221 56.7479 18.8851 56.9369 18.7731 56.9999L18.6961 56.9299C18.9271 56.6289 18.5491 56.3559 18.9201 56.1249L19.0601 56.4189C19.2071 56.2789 19.1231 55.9989 18.9131 55.9849C19.0461 55.7399 18.6401 55.5509 18.9901 55.3969C19.0391 55.3129 19.2001 55.1869 19.0601 55.1099C19.5781 54.7179 18.9201 54.0459 19.6411 53.8009L19.7881 53.9479L19.8651 53.8779C19.9071 53.7379 19.7951 53.6749 19.7181 53.5839L19.6411 53.6539L19.5711 53.5839C19.8231 53.3389 19.3191 52.5269 20.0121 52.7089C20.6001 52.7999 19.7741 52.1839 20.1521 51.9879L20.0051 51.8409C20.0891 51.4909 20.4391 51.8969 20.5861 51.7709C20.4531 51.7219 20.5371 51.5749 20.5161 51.4769C21.0901 51.1059 20.8521 50.2729 21.3841 49.8109L21.1671 49.6639C21.1881 49.5239 21.1111 49.3279 21.2441 49.2299C21.9931 49.8879 21.0831 50.5809 21.0201 51.2599H21.0901V51.1199C21.6151 51.0009 21.2511 50.3989 21.6711 50.1749C21.7901 49.2579 22.5111 48.6069 22.4691 47.6339C22.5391 47.4869 22.7911 47.6339 22.7631 47.4169L22.6161 47.5569C22.3781 47.4379 22.7841 47.3189 22.5461 47.1999L22.3991 47.3469C22.3151 47.8929 21.9931 48.3409 21.6781 48.7959C21.3561 48.6769 21.7201 48.2289 21.3141 48.2149C21.2301 48.0259 21.4541 47.9699 21.5311 47.8509C21.6361 47.9769 21.6291 48.2009 21.8251 48.2149C22.2241 48.0469 21.6221 47.6829 22.1191 47.6339L22.0351 47.5569C22.0071 47.3889 22.2031 47.4589 22.2591 47.3469C22.1681 47.3049 22.1961 47.2069 22.1891 47.1299C22.7071 46.8009 22.5531 46.1989 22.8331 45.7719C22.6021 46.0869 22.3501 46.4089 22.1821 46.7659C22.0141 46.4509 22.1681 46.0869 22.3291 45.8209C21.9931 45.5339 22.0211 46.0869 21.7481 46.1849C21.9161 46.4719 21.4401 46.4789 21.6011 46.7659C20.9571 47.6479 20.5441 48.6279 20.0821 49.5939C19.9631 49.7059 19.7951 49.9299 19.6411 49.7339C19.3961 50.2659 18.9411 50.7069 18.9131 51.3369C18.9901 51.4629 19.1161 51.4559 19.2071 51.5539C19.1441 51.7289 19.4031 51.8479 19.2071 51.9949C18.9131 52.0719 19.0601 51.7289 18.9201 51.6239C18.8308 51.7062 18.7636 51.8095 18.7245 51.9245C18.6853 52.0394 18.6756 52.1623 18.6961 52.2819C18.3951 52.6949 18.4231 53.2409 18.1221 53.6539L18.3321 53.8009C18.3321 53.8779 18.3601 53.9759 18.2691 54.0179C18.2201 53.9759 18.1851 53.9269 18.1221 53.9479C18.1431 54.0949 18.3881 54.2419 18.1921 54.3889C18.2341 54.4309 18.2691 54.4799 18.3391 54.4589C18.5421 54.7529 18.8641 55.0889 18.6331 55.4739C18.5421 55.4319 18.5701 55.3339 18.5631 55.2569C18.4231 54.9559 18.1431 55.1169 17.9751 55.0399C18.0445 54.9897 18.1005 54.9233 18.1383 54.8464C18.1762 54.7695 18.1946 54.6846 18.1921 54.5989C18.1501 54.5079 18.0521 54.5359 17.9751 54.5289C18.2481 54.7809 17.6881 54.6829 17.8281 54.9699C18.2201 55.0329 17.9051 55.4809 17.8281 55.6979L17.6811 55.5439C17.5131 55.7049 18.0101 56.0689 17.5341 56.1249C17.5131 56.4819 17.3591 56.7969 17.3241 57.1469C17.5761 57.3359 17.0301 57.4479 17.3241 57.6509C17.5971 57.4059 17.3451 56.8739 17.8351 56.7759C17.8701 56.8249 17.9191 56.8599 17.8981 56.9229C17.9182 57.0117 17.9631 57.0931 18.0275 57.1575C18.0919 57.2219 18.1732 57.2667 18.2621 57.2869C18.2411 57.3849 18.3181 57.5249 18.1921 57.5809C17.9961 57.1609 17.8491 57.7489 17.6111 57.6509C17.6662 57.7505 17.6951 57.8626 17.6951 57.9764C17.6951 58.0903 17.6662 58.2023 17.6111 58.3019C17.8841 58.8059 17.4081 59.1839 17.4641 59.6809C17.3311 60.0659 17.7441 60.4019 17.3941 60.6959C17.2611 61.3189 17.3451 61.7669 17.3241 62.4389C17.23 62.7212 17.1804 63.0164 17.1771 63.3139C17.0091 63.3419 17.0721 63.1459 16.9601 63.0969C16.9811 62.2079 17.2261 61.2349 17.0301 60.4089C16.6871 61.1089 16.7921 62.0049 16.6661 62.8029C16.7641 62.8449 16.7361 62.9429 16.7431 63.0199C16.6101 63.3629 16.6871 63.8879 16.6661 64.1819V67.2339C16.6871 67.4089 16.4981 67.3809 16.3791 67.3809C16.4001 67.0869 15.9941 66.6459 16.4491 66.5059C16.1411 66.1909 16.4001 65.9039 16.1621 65.5609C16.4841 65.2669 16.1621 64.8889 16.1621 64.5459C16.3581 64.2659 15.9451 64.0909 16.2321 63.8179C16.1131 63.9719 15.8751 63.8109 15.7981 64.0349L15.8681 64.1049C15.6511 64.5389 16.0081 64.9379 15.7211 65.3369C15.3011 65.2529 15.6371 64.7209 15.4341 64.4759C15.4131 64.2379 15.8261 63.8389 15.3641 63.7479C15.4131 63.5309 15.2381 63.2159 15.5111 63.0969C15.2171 62.8169 15.7631 62.6349 15.5111 62.3689C15.5601 62.2359 15.7001 62.3199 15.7981 62.2989C15.9311 62.4459 15.8471 62.6839 15.8681 62.8799C15.9381 62.9289 15.9871 63.0549 16.0851 63.0269C16.1621 62.9359 16.2671 62.8729 16.2321 62.7329C16.1901 62.7749 16.1551 62.8309 16.0851 62.8029C15.8051 62.5439 16.3231 62.3759 16.3791 62.2219C15.6721 62.0749 16.1901 61.4589 16.0501 61.1019C15.6441 61.3819 16.1971 61.8439 15.7981 62.1449C15.7134 62.115 15.6364 62.0668 15.5723 62.004C15.5082 61.9411 15.4586 61.865 15.4271 61.7809C15.8611 61.6129 15.3991 61.3609 15.6441 61.1299L15.5741 61.0599C15.8611 60.6959 15.2871 60.1779 15.7911 59.9749L15.7141 59.9049C15.6231 59.7929 15.5951 59.5689 15.7141 59.4639C15.8261 59.0509 16.1551 58.4559 15.7141 58.0849C15.4481 59.3869 15.3851 60.5069 15.2171 61.8579C15.4061 62.6349 15.1681 63.4049 15.1471 64.1819C15.4831 64.6999 15.0141 65.0919 15.0701 65.6309L15.0001 65.5609L14.9301 65.6309C14.9021 65.7009 14.9511 65.7359 15.0001 65.7779C15.4201 65.6449 15.0911 66.4009 15.2941 66.6529C14.8671 66.7509 15.1961 67.0379 15.2101 67.2409L15.2171 67.2339C15.3431 67.4439 15.3781 67.7799 15.3641 67.9619C15.1541 67.9899 15.2871 67.7309 15.1541 67.6609C14.9021 67.8639 15.3081 68.0529 15.0701 68.2489C15.1821 68.2629 15.2801 68.0739 15.3641 68.2489C15.3851 68.4799 15.3641 68.6899 15.1541 68.8229C15.3781 70.0269 15.2521 71.3779 15.8051 72.4629C15.9661 73.3379 16.0361 74.2479 16.3021 75.0739C16.9951 77.1319 17.5271 79.2739 18.4161 81.2409L18.9201 82.6199C20.2641 85.3009 21.7131 87.9399 23.2741 90.5299C24.5061 92.3009 25.6261 94.1839 27.2011 95.7589C27.4111 96.2769 27.9151 96.7319 28.2161 97.1379C30.5751 99.4759 33.3751 101.835 35.9861 103.893C36.4382 104.083 36.8371 104.381 37.1481 104.761C37.4981 104.859 37.7571 105.139 38.0931 105.272C38.4781 105.44 38.6041 105.79 39.0381 105.846C39.4264 106.22 39.8996 106.493 40.4171 106.644C42.1181 107.701 43.8961 108.576 45.7161 109.332C45.9821 109.451 46.1711 109.71 46.5141 109.619C46.9551 109.99 47.5501 109.934 47.9701 110.347C48.4811 110.088 48.3971 110.816 48.9151 110.557C49.0271 110.879 49.3911 110.543 49.4961 110.858L49.6431 110.711C49.3841 110.011 48.8381 110.669 48.4811 110.207C48.3551 109.836 47.9701 110.137 47.8301 109.836C47.4731 109.773 47.1021 109.731 46.8081 109.542C46.6331 109.437 46.5841 109.423 46.3741 109.472C45.8001 109.08 45.0931 108.989 44.5541 108.52C43.7281 108.233 43.0211 107.645 42.1601 107.435C41.9151 107.281 41.7681 107.148 41.5791 107.001H41.4181C40.6901 106.924 40.5781 106.301 39.8921 106.126C39.4511 105.636 38.7861 105.349 38.2261 104.964C37.7851 105.062 37.7921 104.509 37.3511 104.593C36.8121 104.089 36.1331 103.571 35.5311 103.067C35.4471 102.822 34.6911 102.885 35.0341 102.416L38.0791 104.656H38.2961C38.7931 105.202 39.4861 105.531 40.1091 105.888C40.4521 105.979 40.6621 106.364 41.0541 106.329C42.1531 107.113 43.3781 107.589 44.5401 108.219C44.8761 108.324 45.2191 108.639 45.5621 108.52C46.8781 109.395 48.4251 109.738 49.9161 110.186C50.1541 110.228 50.4481 110.382 50.6441 110.333C51.7501 110.725 52.8491 111.117 54.0531 111.278C54.4731 111.327 55.1031 111.481 55.5791 111.425C56.3071 111.712 57.1261 111.775 57.9031 111.943C58.2461 111.803 58.7291 112.216 59.0651 111.859L59.2821 112.076C60.0871 111.978 60.9131 112.237 61.7531 112.293C61.9911 112.069 62.3761 112.356 62.7051 112.363C63.7551 112.223 64.7351 112.307 65.7571 112.293C66.0371 111.992 66.5271 112.251 66.8421 112.076C67.0871 112.356 67.4651 111.887 67.7871 112.153C68.6761 112.055 69.4881 111.733 70.4681 111.859C70.7131 111.81 70.9581 111.551 71.1961 111.712C72.4771 111.411 73.8001 111.194 75.0391 110.767C75.2491 110.984 75.4311 110.69 75.6201 110.62C76.0751 110.648 76.3831 110.291 76.8521 110.333C77.3561 109.766 78.2591 110.165 78.7421 109.535C78.8499 109.463 78.9766 109.425 79.1061 109.425C79.2356 109.425 79.3622 109.463 79.4701 109.535C79.6731 109.521 79.6661 109.304 79.7641 109.171C80.1211 109.409 80.4501 108.716 80.7791 109.094C81.4721 108.464 82.3891 108.45 83.1801 108.072C83.5301 108.051 83.8101 107.659 84.1251 107.778C84.3281 107.638 84.5101 107.456 84.7761 107.484C84.9861 107.484 85.1751 107.19 85.3571 107.337C85.5321 107.253 85.4551 107.064 85.5741 106.966C86.2041 106.896 86.7291 106.56 87.3171 106.392C87.4641 105.888 88.0101 106.49 88.1151 105.874C88.3391 106.133 88.2761 105.706 88.4791 105.664C89.3358 105.45 90.1012 104.966 90.6631 104.285C91.5241 103.907 92.3081 103.319 93.1411 102.829L93.2111 102.899C93.7641 102.353 94.4711 101.905 95.1081 101.373L95.3181 101.45C95.4091 101.359 95.5071 101.303 95.4651 101.163C95.7941 101.121 95.5351 100.862 95.6821 100.722C95.7871 100.694 95.8291 100.82 95.8921 100.869C96.1581 100.68 96.3331 100.253 96.6901 100.295C96.6831 100.008 97.0331 99.9449 97.2011 99.7769C97.8731 99.8889 97.6421 99.0559 98.1461 98.9019C98.6361 98.6779 98.7831 98.0479 99.3081 97.8869C100.036 97.1099 100.729 96.2629 101.485 95.5629L101.408 95.4859C102.598 94.1279 103.69 92.7909 104.824 91.3489V91.2019C105.489 90.7889 105.321 89.8999 106.133 89.6759C105.79 89.2559 106.553 89.5079 106.427 89.0949C106.931 88.9479 106.497 88.3949 106.931 88.2269C106.812 87.7929 107.274 87.4569 107.442 87.0649C107.169 86.8549 107.197 86.5189 107.512 86.3369C107.792 86.5119 107.309 86.5679 107.442 86.7779C107.925 86.1479 108.331 85.3499 108.674 84.5939H108.604C108.436 85.0279 108.142 85.4129 107.953 85.8329L107.785 85.6999C108.268 84.7409 108.625 83.7469 109.101 82.7879L109.171 82.8579C109.78 81.3389 110.641 79.7919 110.914 78.0629C111.551 76.1869 112.034 74.2479 112.223 72.1829C112.545 72.0009 112.139 71.7489 112.37 71.5319C112.328 71.4899 112.279 71.4479 112.3 71.3849C112.72 70.9649 112.384 70.1389 112.594 69.7189C112.748 68.5849 112.755 67.5279 112.958 66.3799C112.874 66.1489 112.685 65.8969 112.916 65.6309Z" fill="black"/>
</svg>
