<?xml version="1.0" standalone="no"?><!DOCTYPE svg PUBLIC "-//W3C//DTD SVG 1.1//EN" "http://www.w3.org/Graphics/SVG/1.1/DTD/svg11.dtd"><svg t="1716721176912" class="icon" viewBox="0 0 1024 1024" version="1.1" xmlns="http://www.w3.org/2000/svg" p-id="17252" xmlns:xlink="http://www.w3.org/1999/xlink" width="128" height="128"><path d="M959.232 526.912c-1.28-3.264-0.448-5.76-0.704-8.64-1.088 1.472-2.624 1.92-4.032 2.688-1.408-5.12 0.128-11.456-1.344-16.576l0.704-0.64-1.984-24.576-1.344-1.344a26.496 26.496 0 0 0-1.344-15.296c-1.088-2.304 2.432-5.696-0.64-7.936-1.984-16.512-7.36-31.616-9.984-47.808 0.768-0.768 1.344-1.728 2.688-1.344 1.216 0.704 0.448 2.176 0.64 3.328 3.52 7.36 3.904 15.872 7.296 23.232 0.896-3.392-1.472-7.04-1.984-10.624 2.432-4.736-2.944-7.808-1.984-12.608 0-2.048-4.608-2.944-1.92-5.312-2.816-9.92-4.736-20.288-8.64-29.824-2.752-4.48-2.368-10.176-6.656-13.952 0.96-7.936-6.976-13.76-7.296-21.888-5.312-5.184-5.632-12.352-9.92-17.92-0.832-2.176-1.088-4.48-3.392-5.952-3.2-8.32-9.344-15.552-12.544-23.872-4.096-1.856-2.688-7.04-7.296-9.344 1.408-3.584-4.16-2.368-2.688-5.952-7.68-8.32-11.776-18.176-19.264-26.56l-0.768 0.64c3.904 6.592 8.256 12.864 12.608 19.264 0.704 0.768 2.816 0.832 1.984 2.688-2.24 2.368-3.712-1.536-5.824-1.984-5.952-10.752-16-19.776-21.952-30.528 1.344-0.448 2.24-1.856 4.032-1.344 0.896 2.688 5.248 3.968 4.672 7.296 0.576 0.192 0.96-0.256 1.344-0.64-19.84-23.68-42.432-49.216-67.008-69.696l-0.64 0.64 1.344 1.344c-0.192 1.344 0.512 3.072-0.704 3.968-10.944-5.824-19.52-13.312-29.824-20.544-7.936-7.36-17.984-13.888-25.856-21.248l1.984-1.344-17.92-11.968h-1.984c-8.448-6.272-18.048-9.792-27.2-14.656-3.712-0.832-6.656-3.584-10.624-3.968a340.288 340.288 0 0 0-59.008-18.624c-3.072-2.048-7.168-1.088-10.112-3.2-2.24 0.512-4.736-2.368-7.936-1.344-2.752-2.88-7.936 0.192-10.624-2.624-3.776-0.704-7.936-4.288-11.328-1.984-0.704-3.84-5.824 0.064-5.312-3.968 2.496-1.536 5.248-0.128 7.296 1.344l0.64-0.64a6.912 6.912 0 0 1 5.312 1.344c0.192-1.92 2.24-2.176 4.032-1.984 6.4 3.776 14.272 4.096 21.248 6.656 3.584 1.856 9.216-1.216 11.968 2.688 3.264-2.752 6.08 1.856 8.64 1.152a15.232 15.232 0 0 0-9.984-3.968c-4.096-4.8-10.24-4.48-15.936-5.312-1.92-0.576-4.416-1.792-6.016-1.344-1.856 0.64-2.752-0.896-3.904-1.984l-0.704 0.64c-4.928-0.896-10.56-3.84-15.232-1.28l-2.048-1.984c-3.776-0.448-7.872-1.856-11.264-1.344-7.296-2.88-14.592 0.192-21.888-2.688-6.272 2.56-8.832-1.92-15.232-0.64-1.856 4.224-3.136-2.496-5.312 0.64-1.792 0.832-5.248 1.536-6.656-0.64-0.832 1.216-1.92 1.472-3.328 1.344-1.216-1.536-2.688-2.368-4.608-1.984-3.136 2.688-7.04-2.688-9.28 1.984-0.768-0.064-1.664 0.128-2.048-0.704-1.6-0.256-2.368 3.648-3.968 1.344-2.752-2.24-6.784-1.152-9.984-1.344-8.704-0.128-17.664 2.816-27.2 2.688l-1.28 1.344c-15.296 1.088-30.464 2.56-44.416 6.656-4.864 0.896-9.92 1.344-14.016 3.968a85.312 85.312 0 0 0-22.528 5.952l-0.704-0.64-1.344 1.28c-35.264 9.728-69.888 20.992-99.52 44.48-9.088 10.624-19.904 20.608-22.592 33.856-1.28 4.16 0.384 9.664-3.968 12.608 1.984 4.16 4.736 8.064 5.952 12.608 2.368 2.816-2.048 6.208 1.344 8.64l3.968-1.344c3.072 2.944 4.416 7.616 8.64 10.624l2.688-1.984c6.784-5.568 4.736 7.68 11.328 2.688 1.792 1.088 1.472 2.88 3.328 3.968 0 2.176 3.008 4.864 0 6.656 1.152 0.704 1.088 1.856 1.984 2.688 1.536-0.128 3.264 1.6 4.544 0 1.344 1.92 2.88 3.712 3.392 5.952-1.152 1.728-2.24-0.512-3.392-0.704-1.152 1.152-0.512 3.904-0.64 4.672 3.712 1.216 6.848 3.776 10.624 4.672l-1.984 1.92c-0.768-0.064-1.536 0.128-1.92-0.64-1.6 0.768 0.128 1.728 0 2.688-0.448 0.384-0.832 0.896-1.344 0.64l0.64 1.984c-1.472 3.456-3.584-1.152-5.376 1.344l0.768 0.64c1.728-0.448 4.288 1.088 5.248-1.344 4.096 1.792-2.56 3.136 0.64 5.312-0.256 2.112-0.064 4.544-1.984 5.952-1.152-0.192-2.624 0.512-3.328-0.64l-3.328 3.328 1.92 1.344c1.536 5.056-1.856 10.304-5.952 13.312 1.28 7.04 1.856 15.488 9.984 18.56 2.88-1.6 6.208-0.192 8.64 1.28 1.856 3.456 6.144 3.52 9.344 5.312 7.04 7.744 18.112 5.888 25.216 13.888 8.96-2.624 21.632-0.32 31.872-1.984l3.968-5.248c-2.624-2.496 1.728-3.2 2.624-4.672-0.896-9.024 8.704-8 13.312-12.608a20.48 20.48 0 0 0 10.624-4.032c1.728 1.6 2.432-0.064 4.032-0.64 3.84 2.24 7.104-2.816 10.624-1.344 0.96-0.768 0.32-3.456 2.56-2.624 1.92 2.624 5.952 0.448 8 1.344 0.192-0.832-0.512-2.176 0.64-2.688 2.944 2.816 6.464-1.088 9.28-2.624l1.344 2.688c3.008-0.32 6.912-1.664 7.936-4.032l1.344 2.688c0.896-0.192 2.176 0.512 2.624-0.64l-2.624-2.048c3.904-5.184 6.4 5.12 9.92 0.64l-0.704-0.64c-0.128-0.576 0.32-0.896 0.768-1.344 0.64-0.192 0.96 0.256 1.344 0.704l0.64-0.704c1.536 0.192 3.52-0.512 4.672 0.704 0.256 1.984-2.048 0.64-2.688 1.984l0.64 0.704c1.6-0.256 3.776 0.768 4.672-1.344-0.448-0.64-1.6-1.088-1.344-1.984 4.544-3.392 4.992 3.072 8.576 3.968 2.24-0.768 5.184-1.536 7.232-0.64 3.264-1.152 8.128-2.432 11.264 0 0.64-1.344 3.008 0 2.688-1.984-0.896 0.192-1.28-0.896-1.856-1.408-0.448-2.496 2.432-2.56 3.264-3.968 0.192 2.176 0.128 5.44 2.688 6.656l2.688-2.688c-2.688-4.864 2.816 0.256 3.968-3.264 1.536 0.896 4.352 0.064 4.672 2.688 1.792-3.2 7.104 0.768 7.872-3.392 1.536 0.064 3.2-0.32 4.032 1.344 1.024 1.152 1.024 3.52 0 4.672 3.584 3.712 7.296 2.752 11.968 1.984 2.24 3.328 7.232 1.344 8.64 5.312l1.28-1.344c1.344 2.24 4.544 0.768 5.952 1.344 0.192 0.576-0.256 0.896-0.64 1.344l2.688 1.984c1.792-0.448 4.352 1.152 5.312-1.344 1.408 0.192 3.456-0.576 4.608 0.64 0.384 1.28-0.64 1.856-1.344 2.688-0.576 0.192-0.896-0.256-1.344-0.704v0.704c0.96 1.216 2.688 0.448 4.032 0.64 0.064-0.768-0.128-1.6 0.64-1.984 0.64-0.192 1.024 0.256 1.344 0.64 0.448-1.216 1.792-0.448 2.688-0.64 0.128 4.288 4.544 4.288 7.296 5.952 2.176-1.088-1.6-2.176 0.64-3.328 1.792 0.64 3.072 2.688 4.608 4.032a11.52 11.52 0 0 1 11.264 1.984c4.544 0.512 8 4.096 12.608 4.672 2.496-1.856 2.944 4.672 6.656 2.624 2.624 1.792 6.592 0.256 8 4.608l1.28-1.28c1.664 2.752 5.696 2.56 8 5.312 2.752-2.432 0.832 2.304 3.328 2.624 0.384-0.384 0.704-0.832 1.344-0.64 0.896 5.952 5.696-0.96 7.296 4.672 2.048 1.536 4.352 2.432 6.656 3.328 3.328 5.44 9.024 5.248 12.544 9.984 2.688-2.752 1.92 2.368 4.672 1.344 0.96 3.456 4.416 3.776 5.952 7.296 1.344-0.384 2.88-2.56 4.032 0-2.496 6.336 8.448 3.648 7.232 9.984l1.984-1.984a49.856 49.856 0 0 1 8.576 12.608l1.344-1.344c1.152 0.192 2.624-0.512 3.328 0.64-0.064 0.768 0.192 1.6-0.64 1.984-0.576 0.192-0.96-0.256-1.344-0.64l-0.704 0.64 2.688 2.688 1.344-1.984 5.312 3.328c-1.088 1.088-2.56 3.072-4.032 1.344v0.64h0.64c0.96 0.384 0.64 1.28 0.768 1.984 1.792 4.352 4.8 0.768 7.232 1.984-0.192 0.896 0.576 2.176-0.64 2.688-0.128 5.504 4.544 7.296 6.656 11.968l1.344-1.344c1.856-0.128 1.152 2.048 2.688 2.688l0.64-0.64c0.768 0.064 1.6-0.192 1.984 0.64-5.824 5.248 2.176 9.728 3.328 14.592 8.832-3.52-0.448 6.592 5.312 8.64l0.704-0.64a8.256 8.256 0 0 1 4.032 4.032c-0.704 0.448-1.088 1.6-1.984 1.344 1.216 1.536 0.192 5.12 3.392 4.672l-0.704 0.64c-0.192 0.576 0.32 0.96 0.704 1.344 1.472-1.792 3.136 0.448 4.608 0.704-0.704 1.152-0.576 2.432-1.92 3.328-0.384-0.384-0.832-0.896-1.344-0.64l4.032 3.968-0.704 0.64c-0.576 0.192-0.96-0.256-1.344-0.64l-0.64 0.64c0.384 3.968 4.8 1.024 5.952 4.672l1.344-1.344c0.96 0.192 2.176-0.576 2.688 0.64-0.192 1.152 0.576 2.56-0.704 3.328l0.704 0.64c-1.152 2.176-2.112-1.536-3.328 0.64 0.064 1.408 1.664 1.984 2.688 2.688-3.52 5.312 3.52 7.872 3.328 12.608 1.984 1.6-1.536 7.296 3.328 5.952 1.344 0.832 1.344 2.176 1.92 3.328-0.704 1.92-1.344 5.44 0 6.656l-0.64 0.64c-1.152 2.816 0.384 6.4 2.688 8.64-1.408 3.712 0.128 8.576-0.64 11.968 1.152 0.192 2.624-0.512 3.328 0.64 0.192 0.576-0.256 0.96-0.64 1.344l1.984 1.344c-1.28 1.536 0.384 4.224-1.984 5.312-0.448 0.832-1.92 1.92-0.64 2.688-2.24 2.688 1.408 5.312-0.768 8 2.432 1.728 1.92 5.44 1.984 7.296-1.92 2.048 0.576 3.84 1.984 5.312-0.448 0.448 0.32 1.792-0.896 2.24-4.992 1.344 0.896 4.224 0.64 6.656-5.248 1.472-0.896 6.848-3.328 10.624 2.24 2.88-1.088 5.568 1.344 7.936 0.896 3.776-1.216 6.272-3.328 8.64l0.64 0.64c-2.688 5.952-1.536 13.504-4.672 19.328a16.256 16.256 0 0 1-1.92 9.28c0.448 5.696-3.2 9.728-4.672 14.656-1.536 3.392-2.368 7.04-3.328 10.56-3.776 1.728 0.064 6.528-4.032 8a311.872 311.872 0 0 1-67.648 90.944c-18.496 11.072-35.392 26.176-55.808 32.512-0.448 1.344-2.368 3.968-4.032 1.984-2.432 3.008-6.464 2.048-9.344 3.968-2.432 0.896-5.12 3.136-7.296 2.688-4.608 2.496-9.728 3.584-14.592 5.312-9.152 3.264-19.136 4.416-28.544 6.656-1.92-0.256-3.456 2.752-5.312 0.768-6.592 2.112-16.768 1.28-23.232 3.328-4.864-1.792-9.728 0.448-14.592 0.704-11.456 0.704-23.04-1.088-33.856-2.752-3.2 2.752-6.656-1.856-10.624-1.344-4.032 1.92-6.976-2.688-11.264-1.984-1.792 0.576-1.024 3.456-3.392 2.688-1.344-4.352-5.952-3.712-9.28-4.608-2.176-4.16-6.272-0.64-9.984-2.752-0.448-4.48-4.736 0.128-6.656-3.968-3.52 3.136-4.928-2.752-8-2.688-2.624-2.048-6.912 0.128-8.64-4.032-1.408 0-3.008-0.256-4.032 0.64-0.384-0.384-0.896-0.768-0.704-1.344l-1.984 0.704c-0.192-6.272-7.872-4.352-9.792-9.472l1.344-1.344-0.64-0.768-1.984 2.048c-2.24-1.472-5.12-1.472-7.296-3.392l0.64 0.704c-3.584 3.2-4.928-2.816-8.64-3.328l0.64-1.984c-0.64-0.448-1.088-1.6-1.92-1.344-0.192 0.896 0.576 2.176-0.704 2.752-1.152 0-1.728-1.344-2.688-1.984l1.984-1.344-1.344-1.344c-2.688-1.728-5.376 1.216-6.656-2.624-4.032 1.088-5.12-3.776-7.296-6.656-0.704 0.448-1.088 1.6-1.92 1.344-1.6-0.64 0.128-1.664 0-2.624-1.152-0.768-0.448-3.52-2.688-2.752-1.792-6.144-8.64 1.408-9.984-5.888-2.752-0.128-5.184-4.416-7.296-6.016-0.064 0.768 0.192 1.6-0.704 1.984 0.32-3.52-4.224-5.056-5.312-8l-0.64 0.64c-1.024 0.256-1.344-0.832-1.984-1.344-1.216-2.752 1.856-1.984 2.624-4.032l-1.344-1.344c-2.688 0.512-4.224 3.584-7.232 3.392-0.192-1.152-2.496-2.176-0.768-3.392 0.768 0.832 2.432 0.128 3.392-0.64-0.448-1.28-1.792-2.112-1.984-3.392 0.704-1.6 1.728 0.128 2.688 0-0.896-1.152-0.832-3.2-2.688-3.328-2.304 1.088-0.32 2.432-0.64 4.032-2.624-1.024-3.84 5.504-6.08 1.344 0.96-3.584-3.392-3.328-4.544-5.952l1.92-2.752-1.92-1.344c0.832-1.536 3.392 0.448 3.328-1.92-1.216-1.28-3.136-0.512-4.672-0.704-1.28-4.416-6.528-3.392-8-7.296l0.64-0.64c1.344-0.384 1.856 0.64 2.688 1.344-0.064 2.368 3.52 1.024 4.032 1.344 0.192-0.576-0.256-0.96-0.704-1.344-0.832-0.512-1.92-1.92-2.624-0.64l-0.768-0.704c0.384-3.008 2.688-0.64 4.032-1.92-1.344-1.216-2.432-2.88-4.032-3.392 0.384 1.024 1.344 2.432 0 3.392-2.688 0.768-1.344-2.368-2.688-3.392-2.944 0.384-0.64 2.688-1.92 4.032-2.368-1.28-2.688-4.416-4.032-6.656a10.24 10.24 0 0 1 7.296 1.984c0.896-0.384 0.576-1.344 0.64-1.984-2.688-0.448-4.288-3.52-7.296-3.328 0.064-2.24-3.328-4.032-1.92-5.952 1.792 1.344 2.816 2.432 3.328 4.544 0.768 0 1.536 0.128 1.984-0.64l-1.344-1.344c1.216-4.608-4.224-1.536-5.312-5.312l2.56-1.6c-0.256-0.96-0.448-1.856-1.344-2.688l-1.984 1.344c-1.408-0.768-1.472-2.112-0.64-3.264-1.216-0.128-1.792 1.344-2.688 1.92 1.152 0.96 3.2 0.832 3.328 2.688-2.048 0.128-5.056-1.28-7.296-2.688 0.64-3.072-3.52-4.224-4.16-6.592 2.368-3.136-1.28-5.376-1.984-8-2.368-0.96-3.136 1.792-4.608 2.624-0.832-0.704-1.408-1.728-2.688-1.28 0.384-2.304-3.776-3.584-1.344-5.952-0.128-1.472-2.048-4.928-3.968-2.688-2.24-1.536 1.6-2.368 1.344-3.904 1.984 1.344 5.248 3.392 3.968 6.656 2.944 0.064 5.952 0.32 8 2.56 0.448-0.768 1.92-1.92 0.64-2.688-0.064-1.152 1.344-1.728 1.984-2.624l-1.344-1.28-0.704 0.64c-1.664 0.704-2.112-1.344-3.264-1.984-0.256-0.96 0.896-1.28 1.344-1.984 0.384 0.448 0.704 0.832 1.344 0.704-0.128-0.832 0.192-1.664-0.704-2.048-5.44 1.664-5.376-4.864-7.936-7.296-0.32-0.96-1.344-2.496 0-3.328 2.88 2.688 4.096 7.232 7.296 8.64-4.608-2.432 1.216-5.056-1.344-8-0.96-0.128-1.92 1.6-2.688 0l1.344-1.344c-1.472 0-2.816-2.112-1.344-3.264-0.384-2.688-4.8-5.312-1.28-8-1.792 0.256-2.944 2.112-4.672 2.688-2.944-1.792 0-4.416 0-6.656l0.64 0.64 0.704-0.64-1.344-1.344-0.64 0.704c-1.408-1.216-3.52-3.264-2.688-6.016-0.64-3.712 2.944-0.512 3.968-1.984-1.344-1.088 0.128-3.264-1.92-3.968l-0.64 0.64-0.704-0.64c-4.992 1.408-1.28-5.376-6.016-4.672 3.52-2.688-1.728-5.824 0-8.64l5.312 5.312c0.896-0.384 0.576-1.344 0.64-1.984-0.384-0.832-1.344-0.576-1.984-0.64-1.92-4.928-6.272-4.544-9.92-7.296-0.192-0.576 0.256-0.896 0.64-1.344 1.216-0.448 1.536 0.768 2.688 0.64-0.192-1.792-2.112-2.88-2.688-4.544 1.344-2.24 2.688 1.472 4.032-0.704 1.536 1.088 1.92 2.56 2.688 3.968l0.64-0.64-0.64-0.704c0.064-0.704-0.128-1.536 0.64-1.92 0.448 0.768 1.344 0.512 1.984 0.64-2.496-3.584 2.112-7.552-1.344-10.688-0.768 0.064-1.6-0.192-1.984 0.64l0.64 0.704c4.224 2.368-0.064 5.312-0.64 8L262.4 550.848c-0.192-1.28 0.256-2.24 0.64-3.328l-3.264-1.344c-1.6-3.008-0.64-5.504 0-8.64 1.792 0.128 2.432 3.072 4.672 1.984 2.816-3.968-4.16-1.984-3.328-5.952-2.176 0.96-1.28 3.712-3.392 3.968l-0.704-0.64c0.512-1.984-1.024-4.864 1.408-5.952 1.6-4.16-2.56-4.992-4.032-7.296l3.328-2.688-0.64-0.64-0.64 0.64c-0.576 0.256-0.96-0.256-1.344-0.64 0.064-0.704-0.128-1.6 0.704-1.984 0.576-0.192 0.896 0.256 1.344 0.704 1.984-1.152-1.024-1.792 0-3.328-1.856 1.024-4.864 1.088-6.016-1.344 0.192-0.896-0.512-2.176 0.64-2.688l2.688 2.688 0.704-0.64c-0.128-3.264-5.248-4.48-4.608-8 2.752-2.176 1.472 2.432 3.2 3.328 1.6 0.128 2.752-0.768 3.968-1.344 0.256-1.536-1.408-0.96-1.984-1.984 0.064-0.704-0.128-1.6 0.64-1.984-0.384-0.704-1.536-1.088-1.28-2.048 0.896-2.496 1.536-4.16-1.344-5.952-0.192-0.576 0.32-0.896 0.704-1.28a8.512 8.512 0 0 1 5.312 3.328c1.984 0.832 3.968 3.712 5.952 2.624-0.064-0.704 0.192-1.6-0.64-1.984-2.304 2.24-2.24-1.216-4.032-1.984 3.584-2.944-1.408-5.568-3.328-8l1.344-1.344c-0.768-2.112 1.984-4.096-1.344-4.608 0.192-1.152-0.576-2.56 0.704-3.328 1.28-0.384 1.856 0.64 2.624 1.344-0.384 3.072 3.712 2.56 4.032 5.312l0.64-0.704-4.672-5.952c-0.768-2.88 1.536-4.48 0.704-7.296-4.672 2.816-1.408-4.736-5.952-3.968 0.064-0.704-0.128-1.6 0.64-1.984 2.368 0.384 3.52 1.92 4.608 3.968 3.072-0.96 1.216 3.072 2.688 3.328 1.6-0.704 0.832-2.368 1.984-3.328-1.984-1.984 1.024-4.352 0-5.952-1.984-0.32-0.64 2.048-1.984 2.624-1.664 0.128-1.344-1.792-1.984-2.624l2.688-1.344c0-1.856-4.032-2.88-2.048-4.672 1.024-0.256 1.344 0.832 1.984 1.344l2.688-2.688c-2.048-0.704-0.576-2.88-1.984-3.968l-0.64 0.64c-0.96 0.32-1.408-0.832-2.048-1.28-0.192-0.576 0.256-0.96 0.64-1.344 0.768 0.064 1.536-0.192 1.92 0.64l0.704-0.64c1.28-0.064 1.856 1.344 2.688 1.984l0.64-0.64c-5.376-3.584-0.832-7.168-1.28-11.968 1.408-0.192 2.56 0.128 3.392 1.344l0.64-0.704-2.688-3.328c-0.128-0.896 1.536-1.92 0-2.688l0.704-0.64c3.52-0.576 0.256 2.176 1.984 3.328l0.64-0.64c2.368-1.856 0.512-3.392-1.344-4.608-0.128-2.432-0.832-4.224 1.28-5.312l2.048 1.984c0.192 0.576-0.256 0.896-0.704 1.344l0.704 0.64 0.64-0.64c0.896-2.56-1.216-3.776-2.688-5.312 0.192-0.896-0.512-2.176 0.704-2.688-0.896-1.152-2.496-1.92-2.688-3.328 2.304-2.048 4.032 1.344 6.016 1.984-0.896-1.28-1.152-2.88-2.688-3.968 4.416-4.48-2.816-5.696-1.344-10.624l-2.624 0.704c-1.856-1.728 1.536-2.88 1.344-4.672l1.92 1.344c-0.64-2.496-3.328-2.432-3.264-5.312 1.088-1.088 2.048-2.176 3.328-2.688l-1.92-1.984c0.896-2.24 2.752-3.008 3.904-4.608l-1.344-1.344c0.064-0.768-0.128-1.6 0.704-1.984 0.832 0.192 2.176-0.512 2.624 0.64l0.704-0.64-2.688-2.688c0.064-0.704-0.128-1.6 0.704-1.984l-0.704-0.64c-0.256-0.96 0.896-1.344 1.344-1.984 0.576-0.192 0.96 0.256 1.344 0.704l0.64-0.704-1.344-1.344a25.408 25.408 0 0 0 1.984-11.968c2.752-1.344 1.984-4.224 4.032-5.952-2.624-5.056 4.992-5.056 0.64-9.28-2.624-0.192-2.688 3.584-5.312 3.968l-0.64-0.64-0.704 0.64 1.344 1.344c-2.688 2.112-0.96 3.712-1.344 5.952-3.776-6.4-3.904 3.648-7.296 4.032l-0.64-0.704 0.704-0.64c-1.92-5.12 4.288-6.848 4.032-11.264l-6.08 8.576-0.64-0.64c0.064-0.704-0.128-1.6 0.64-1.984l-0.64-0.64c-1.088 3.072-3.264 5.76-3.328 9.216-3.136 3.648-4.352 7.936-7.936 11.328-0.832-0.384-0.576-1.28-0.704-1.984 0.576-4.352 7.04-6.272 4.608-11.968 6.336-8.832 8.32-19.328 16.64-27.2-4.864 3.84-9.088 10.368-12.608 15.936-10.944 14.4-17.408 31.232-26.56 45.76-2.752-3.072 2.496-5.312 0.64-8l-2.624 3.392c-1.088-3.392 1.6-6.912 3.328-9.984 0.384-7.936 6.848-13.312 7.296-21.248 2.688-2.624 3.584-6.528 5.952-8.64 0.128-5.696 7.872-9.92 4.672-15.296l1.984-1.984c0.576-0.192 0.96 0.256 1.344 0.704 2.624-0.896 0.32-3.904 1.984-5.312l0.64 0.64c1.792-1.152-0.448-2.176-0.64-3.328-5.76 9.152-13.952 17.92-19.264 26.56l-0.64-0.64-1.344 1.984c-0.704-0.064-1.536 0.128-1.984-0.64 2.24-1.728 3.136-4.032 4.608-5.952 2.56-10.496 9.92-18.88 15.936-27.904-10.56 11.072-16.704 25.792-26.496 37.184l-0.704-0.64c-0.192-0.64 0.256-0.96 0.704-1.344 1.344-2.368 5.888-5.888 1.984-8 5.184-1.28 5.568-6.784 7.296-10.624-1.344 0.96-2.688 3.136-4.032 4.672-1.536-0.704 0.128-1.728 0-2.688l-2.624-1.28c0.192-0.896-0.512-2.176 0.64-2.688 1.6-0.256 2.432 3.584 4.032 1.344-0.512-1.344 0.064-3.84-1.984-3.968 0.064-0.704-0.128-1.6 0.704-1.984l1.344 1.344c0.576 0.192 0.96-0.256 1.344-0.704-0.832-0.768-1.856-1.408-1.408-2.688 0.704-1.6 1.728 0.128 2.688 0l-1.344-1.92-1.984 1.92c-0.64 0.256-0.96-0.256-1.344-0.64 2.88-5.568 7.872-10.368 10.624-15.936-16.512 19.392-35.2 38.976-46.464 61.056-7.04 8.256-9.344 19.648-15.936 28.544-6.656-1.792 1.664-7.104-2.048-11.264 1.536-4.16 2.176-8.832 4.672-12.608a26.432 26.432 0 0 1 4.672-15.936c2.24-2.24 0.64-6.144 3.968-8 2.176-6.528 7.168-11.84 8.64-18.56 1.6-2.176 2.048-4.864 4.608-6.656 1.92-5.888 7.36-10.368 9.984-15.936-3.392 2.368-6.656 7.68-9.984 10.624 0.32 3.456-4.992 2.816-4.032 6.656-3.648 1.408-1.792 6.208-5.888 8 0.448 3.264-5.056 4.096-3.968 8-4.864 4.352-4.8 10.688-9.28 15.232-0.128 0.96 1.536 1.92 0 2.688-0.64 0.192-0.96-0.256-1.344-0.64-0.448 0.32-0.768 0.768-1.344 0.576-0.448-3.776 3.136-7.488 4.608-11.264-5.376 4.736-8.192 11.648-11.264 17.92-0.768 3.392-5.76 5.888-4.672 9.28a5.12 5.12 0 0 1-3.328 5.312c-0.32 5.952-4.544 8.576-4.608 14.592-5.504 5.184-5.376 12.736-9.28 18.56 0.32 0.96 1.344 2.496 0 3.328-1.92-0.192-2.176-2.24-1.984-3.968 2.368-4.224 0.896-7.68 3.328-11.968 3.264-2.112 2.56-6.656 2.688-9.28 0.576-0.192 0.896 0.256 1.344 0.64l0.64-0.64c0.832-1.408 1.472-4.416-0.64-5.312-1.664 0.768 0.384 3.52-2.048 3.328-0.128-4.544-0.128-10.496 2.624-14.592 3.072 1.408 1.28-4.096 4.032-5.312l-0.704-0.704c-1.152-2.816 0.384-6.336 2.624-8.576l0.704 0.64c0.384 1.28-0.576 1.856-1.344 2.688l0.64 0.64c2.688-0.96 0.32-3.904 1.984-5.312l-2.624-1.28 1.984-3.328c-0.128-1.216 1.472-4.16 1.344-5.376 0.256 1.6-3.584 2.432-1.344 4.032l-4.608 4.672c1.28 4.224-4.928 3.584-3.328 7.936-3.776 2.304-1.92 6.784-3.392 9.984-4.16-0.576-0.896 4.352-4.608 5.248l0.704 0.64c-3.328 2.752 1.344 8.704-3.968 10.688l0.704 0.64c-0.128 1.408 0.128 2.944-0.704 4.032-4.416 1.6-2.24 6.912-4.672 9.92 1.792 4.544-3.264 6.144-3.392 10.624 0.128 2.688-2.048 6.912-1.28 9.92-5.632 13.312-5.248 29.248-7.936 43.84-1.472 3.328-0.448 8.192-2.624 11.904-4.16-0.576-0.256-4.48-1.984-7.296 1.536-0.704-0.512-3.52 1.984-3.264-0.896-2.24-3.84-4.48-2.688-6.656 0.384 0.384 0.704 0.832 1.344 0.64-0.832-2.56 2.176-6.016 1.344-8.64-0.256-0.576 0.256-0.896 0.64-1.28 0.064-2.176 2.944-4.864 0-6.656l-1.984 3.328c0.128 3.264 0.192 7.168-2.688 8.64 0.192-2.56-0.512-7.04 0.768-9.984 2.816-2.624-0.064-5.056 1.92-8-1.152-3.264 1.792-6.592 2.624-9.92 3.392 5.44-3.648 10.432 0 14.592 3.136-1.408 1.28-3.712 1.344-5.952 4.032-10.88 5.184-22.976 9.28-33.856l-0.64-0.64c3.968-3.712 1.984-7.36 5.312-11.264-2.88-3.52 3.52-4.672 1.28-8.704 3.52-2.048 1.152-7.168 4.608-8.64-0.128-3.2 2.816-6.144 2.688-8.576l8-17.92c-3.072 0.96-3.392 4.096-3.968 6.592-1.536 3.136-2.112 6.592-4.672 9.28-1.216 0.448-1.856-0.576-2.624-1.28 4.032-5.376 2.944-12.8 5.952-18.624 1.088-2.176-1.92-3.52 0-5.312l1.344 1.344 0.704-0.64c-2.432-2.944 2.24-5.376 0.64-7.936-3.008 2.496-4.032 7.04-6.016 10.624-1.152-0.768-1.024-1.92-1.984-2.688-1.152 2.88-3.456 4.416-0.64 7.296 0.832 2.816-1.152 5.056-3.328 6.016-2.368-1.728 2.624-2.88 0-4.672-2.56 1.856-3.136 5.76-4.672 8.64l1.344 1.344 1.344-1.344 0.64 0.64c-0.896 1.344-0.768 3.648-2.624 3.968-4.608-0.512 0.896-3.84-2.688-5.312 3.136-10.56 10.24-19.328 13.312-29.888l0.704 0.64c0.96-1.088 1.088-3.264 0.64-3.968-0.64-0.192-0.96 0.256-1.408 0.64l0.704 0.64-2.688 1.408c-3.904 7.68-7.744 16-14.656 21.888 3.264 5.568-6.4 3.072-2.624 8-0.768 2.24-2.048 4.992-4.608 5.952l0.704 0.64c0.704 1.728-1.344 2.24-1.984 3.328-0.512 2.944-2.112 5.376-3.328 8 0.256 3.392-2.88 6.144-1.344 9.28-6.528 8.32-6.08 19.456-10.624 28.544-3.84 10.688-5.76 22.144-8.64 33.216l-1.984-0.64 1.984 2.688-1.984 1.92c-0.448 4.416 1.152 8.768-1.344 13.248 1.408 2.432-1.344 4.736-1.344 7.296 1.984 2.112-1.088 4.608 0.64 6.656l-0.64 0.64c-1.28 0.384-1.856-0.576-2.688-1.344-1.472-1.344-3.136-1.344-4.672 0-0.768-0.704-0.96-1.728-1.216-2.624 0.448-1.216 1.792-0.448 2.688-0.64 0.448-0.768 1.92-1.92 0.64-2.688-0.192-1.344 0.128-2.496 1.28-3.328l-0.704-0.64c0.704-2.688-1.6-7.168 1.984-8 0.384-1.28-0.64-1.856-1.344-2.688l-1.216 1.408c-0.256-1.344-2.432-2.688-0.64-3.968-3.264-3.52 1.984-7.488 0-11.264 3.456-0.896 3.648-3.328 5.248-6.016l-0.64-0.704c-1.536-0.256-0.96 1.472-1.984 2.048l-0.704-0.64c2.112-2.752-1.344-5.248 2.048-7.36l1.28 2.688c1.344-1.28 0.576-3.84-1.344-3.968 1.216-2.24-2.496-3.968 0.704-5.376 0.448-0.768 1.92-1.92 0.64-2.624 4.736-3.584-1.28-9.728 5.312-11.968l1.344 1.344 0.704-0.64c0.384-1.28-0.64-1.856-1.344-2.688l-0.704 0.64-0.64-0.64c2.304-2.24-2.304-9.664 4.032-8 5.376 0.832-2.176-4.8 1.28-6.592l-1.344-1.344c0.768-3.2 3.968 0.512 5.312-0.64-1.216-0.448-0.448-1.792-0.64-2.688 5.248-3.392 3.072-11.008 7.936-15.232l-1.984-1.344c0.192-1.28-0.512-3.072 0.704-3.968 6.848 6.016-1.472 12.352-2.048 18.56h0.64v-1.28c4.8-1.088 1.472-6.592 5.312-8.64 1.088-8.384 7.68-14.336 7.296-23.232 0.64-1.344 2.944 0 2.688-1.984l-1.344 1.28c-2.176-1.088 1.536-2.176-0.64-3.264l-1.344 1.344c-0.768 4.992-3.712 9.088-6.592 13.248-2.944-1.088 0.384-5.184-3.328-5.312-0.768-1.728 1.28-2.24 1.984-3.328 0.96 1.152 0.896 3.2 2.688 3.328 3.648-1.536-1.856-4.864 2.688-5.312l-0.768-0.704c-0.256-1.536 1.536-0.896 2.048-1.92-0.832-0.384-0.576-1.28-0.64-1.984 4.736-3.008 3.328-8.512 5.888-12.416-2.112 2.88-4.416 5.824-5.952 9.088-1.536-2.88-0.128-6.208 1.344-8.64-3.072-2.624-2.816 2.432-5.312 3.328 1.536 2.624-2.816 2.688-1.344 5.312-5.888 8.064-9.664 17.024-13.888 25.856-1.088 1.024-2.624 3.072-4.032 1.28-2.24 4.864-6.4 8.896-6.656 14.656 0.704 1.152 1.856 1.088 2.688 1.984-0.576 1.6 1.792 2.688 0 4.032-2.688 0.704-1.344-2.432-2.624-3.392a6.656 6.656 0 0 0-2.048 6.016c-2.752 3.776-2.496 8.768-5.248 12.544l1.92 1.344c0 0.704 0.256 1.6-0.576 1.984-0.448-0.384-0.768-0.832-1.344-0.64 0.192 1.344 2.432 2.688 0.64 4.032 0.384 0.384 0.704 0.832 1.344 0.64 1.856 2.688 4.8 5.76 2.688 9.28-0.832-0.384-0.576-1.28-0.64-1.984-1.28-2.752-3.84-1.28-5.376-1.984a4.8 4.8 0 0 0 1.984-4.032c-0.384-0.832-1.28-0.576-1.984-0.64 2.496 2.304-2.624 1.408-1.344 4.032 3.584 0.576 0.704 4.672 0 6.656l-1.344-1.408c-1.536 1.472 3.008 4.8-1.344 5.312-0.192 3.264-1.6 6.144-1.92 9.344 2.304 1.728-2.688 2.752 0 4.608 2.496-2.24 0.192-7.104 4.672-8 0.32 0.448 0.768 0.768 0.576 1.344a4.416 4.416 0 0 0 3.328 3.328c-0.192 0.896 0.512 2.176-0.64 2.688-1.792-3.84-3.136 1.536-5.312 0.64a6.144 6.144 0 0 1 0 5.952c2.496 4.608-1.856 8.064-1.344 12.608-1.216 3.52 2.56 6.592-0.64 9.28-1.216 5.696-0.448 9.792-0.64 15.936a26.24 26.24 0 0 0-1.344 8c-1.536 0.256-0.96-1.536-1.984-1.984 0.192-8.128 2.432-17.024 0.64-24.576-3.136 6.4-2.176 14.592-3.328 21.888 0.896 0.384 0.64 1.28 0.704 1.984-1.216 3.136-0.512 7.936-0.704 10.624v27.904c0.192 1.6-1.536 1.344-2.624 1.344 0.192-2.688-3.52-6.72 0.64-8-2.816-2.88-0.448-5.504-2.624-8.64 2.944-2.688 0-6.144 0-9.28 1.792-2.56-1.984-4.16 0.64-6.656-1.088 1.408-3.264-0.064-3.968 1.984l0.64 0.64c-1.984 3.968 1.28 7.616-1.344 11.264-3.84-0.768-0.768-5.632-2.624-7.872-0.192-2.176 3.584-5.824-0.64-6.656 0.448-1.984-1.152-4.864 1.344-5.952-2.688-2.56 2.304-4.224 0-6.656 0.448-1.216 1.728-0.448 2.624-0.64 1.216 1.344 0.448 3.52 0.64 5.312 0.64 0.448 1.088 1.6 1.984 1.344 0.704-0.832 1.664-1.408 1.344-2.688-0.384 0.384-0.704 0.896-1.344 0.64-2.56-2.368 2.176-3.904 2.688-5.312-6.464-1.344-1.728-6.976-3.008-10.24-3.712 2.56 1.344 6.784-2.304 9.536a5.632 5.632 0 0 1-3.392-3.328c3.968-1.536-0.256-3.84 1.984-5.952l-0.64-0.64c2.624-3.328-2.624-8.064 1.984-9.92l-0.704-0.64c-0.832-1.024-1.088-3.072 0-4.032 1.024-3.776 4.032-9.216 0-12.608-2.432 11.904-3.008 22.144-4.544 34.496 1.728 7.104-0.448 14.144-0.64 21.248 3.072 4.736-1.216 8.32-0.704 13.248L64 526.272l-0.64 0.64c-0.256 0.64 0.192 0.96 0.64 1.344 3.84-1.216 0.832 5.696 2.688 8-3.904 0.896-0.896 3.52-0.768 5.376l0.064-0.064c1.152 1.92 1.472 4.992 1.344 6.656-1.92 0.256-0.704-2.112-1.92-2.752-2.304 1.856 1.408 3.584-0.768 5.376 1.024 0.128 1.92-1.6 2.688 0 0.192 2.112 0 4.032-1.92 5.248 2.048 11.008 0.896 23.36 5.952 33.28 1.472 8 2.112 16.32 4.544 23.872 6.336 18.816 11.2 38.4 19.328 56.384l4.608 12.608c12.288 24.512 25.536 48.64 39.808 72.32 11.264 16.192 21.504 33.408 35.904 47.808 1.92 4.736 6.528 8.896 9.28 12.608 21.568 21.376 47.168 42.944 71.04 61.76a27.584 27.584 0 0 1 10.624 7.936c3.2 0.896 5.568 3.456 8.64 4.672 3.52 1.536 4.672 4.736 8.64 5.248a30.464 30.464 0 0 0 12.608 7.296c15.552 9.664 31.808 17.664 48.448 24.576 2.432 1.088 4.16 3.456 7.296 2.624 4.032 3.392 9.472 2.88 13.312 6.656 4.672-2.368 3.904 4.288 8.64 1.92 1.024 2.944 4.352-0.128 5.312 2.752l1.344-1.344c-2.368-6.4-7.36-0.384-10.624-4.608-1.152-3.392-4.672-0.64-5.952-3.392-3.264-0.576-6.656-0.96-9.344-2.688-1.6-0.96-2.048-1.088-3.968-0.64-5.248-3.584-11.712-4.416-16.64-8.704-7.552-2.624-14.016-8-21.888-9.92-2.24-1.408-3.584-2.624-5.312-3.968h-1.472c-6.656-0.704-7.68-6.4-13.952-8-4.032-4.48-10.112-7.104-15.232-10.624-4.032 0.896-3.968-4.16-8-3.392-4.928-4.608-11.136-9.344-16.64-13.952-0.768-2.24-7.68-1.664-4.544-5.952l27.84 20.48h1.984c4.544 4.992 10.88 8 16.576 11.264 3.136 0.832 5.056 4.352 8.64 4.032 10.048 7.168 21.248 11.52 31.872 17.28 3.072 0.96 6.208 3.84 9.344 2.752 12.032 8 26.176 11.136 39.808 15.232 2.176 0.384 4.864 1.792 6.656 1.344 10.112 3.584 20.16 7.168 31.168 8.64 3.84 0.448 9.6 1.856 13.952 1.344 6.656 2.624 14.144 3.2 21.248 4.736 3.136-1.28 7.552 2.496 10.624-0.768l1.984 1.984c7.36-0.896 14.912 1.472 22.592 1.984 2.176-2.048 5.696 0.576 8.704 0.64 9.6-1.28 18.56-0.512 27.904-0.64 2.56-2.752 7.04-0.384 9.92-1.984 2.24 2.56 5.696-1.728 8.64 0.704 8.128-0.896 15.552-3.84 24.512-2.688 2.24-0.448 4.48-2.816 6.656-1.344 11.712-2.752 23.808-4.736 35.136-8.64 1.92 1.984 3.584-0.704 5.312-1.344 4.16 0.256 6.976-3.008 11.264-2.624 4.608-5.184 12.864-1.536 17.28-7.296a6.016 6.016 0 0 1 6.656 0c1.856-0.128 1.792-2.112 2.688-3.328 3.264 2.176 6.272-4.16 9.28-0.704 6.336-5.76 14.72-5.888 21.952-9.344 3.2-0.192 5.76-3.776 8.64-2.688 1.856-1.28 3.52-2.944 5.952-2.688 1.92 0 3.648-2.688 5.312-1.344 1.6-0.768 0.896-2.496 1.984-3.392 5.76-0.64 10.56-3.712 15.936-5.248 1.344-4.608 6.336 0.896 7.296-4.736 2.048 2.368 1.472-1.536 3.328-1.92a37.76 37.76 0 0 0 19.968-12.608c7.872-3.456 15.04-8.832 22.656-13.312l0.64 0.64c5.056-4.992 11.52-9.088 17.344-13.952l1.92 0.704c0.832-0.832 1.728-1.344 1.344-2.624 3.008-0.384 0.64-2.752 1.984-4.032 0.96-0.256 1.344 0.896 1.92 1.344 2.432-1.728 4.032-5.632 7.296-5.248-0.064-2.624 3.136-3.2 4.672-4.736 6.144 1.024 4.032-6.592 8.64-8 4.48-2.048 5.824-7.808 10.624-9.28 6.656-7.104 12.992-14.848 19.904-21.248l-0.704-0.704c10.88-12.416 20.864-24.64 31.232-37.824v-1.344c6.08-3.776 4.544-11.904 11.968-13.952-3.136-3.84 3.84-1.536 2.688-5.312 4.608-1.344 0.64-6.4 4.608-7.936-1.088-3.968 3.136-7.04 4.672-10.624-2.496-1.92-2.24-4.992 0.64-6.656 2.56 1.6-1.856 2.112-0.64 4.032 4.416-5.76 8.128-13.056 11.264-19.968h-0.64c-1.536 3.968-4.224 7.488-5.952 11.328l-1.536-1.216c4.416-8.768 7.68-17.856 12.032-26.624l0.64 0.64c5.568-13.888 13.44-28.032 15.936-43.84 5.824-17.152 10.24-34.88 11.968-53.76 2.944-1.664-0.768-3.968 1.344-5.952-0.384-0.384-0.832-0.768-0.64-1.344 3.84-3.84 0.768-11.392 2.688-15.232 1.408-10.368 1.472-20.032 3.328-30.528-0.768-2.112-2.496-4.416-0.384-6.848z" p-id="17253" data-spm-anchor-id="a313x.search_index.0.i1.15c43a81CbfjSf" class="selected"></path></svg>