<svg width="129" height="129" viewBox="0 0 129 129" fill="none" xmlns="http://www.w3.org/2000/svg">
<path d="M112.529 128.765H16.5293C14.4281 128.765 12.3476 128.351 10.4064 127.547C8.46515 126.743 6.70133 125.564 5.21559 124.078C3.72985 122.593 2.5513 120.829 1.74722 118.888C0.943149 116.946 0.529297 114.866 0.529297 112.765V16.7647C0.529297 12.5212 2.21501 8.45152 5.21559 5.45094C8.21617 2.45036 12.2858 0.764648 16.5293 0.764648H112.529C116.773 0.764648 120.842 2.45036 123.843 5.45094C126.844 8.45152 128.529 12.5212 128.529 16.7647V112.765C128.529 114.866 128.115 116.946 127.311 118.888C126.507 120.829 125.329 122.593 123.843 124.078C122.357 125.564 120.593 126.743 118.652 127.547C116.711 128.351 114.63 128.765 112.529 128.765ZM64.2253 29.3326C44.9293 29.3326 29.2813 45.1966 29.2813 64.7646C29.2813 84.3326 44.9293 100.197 64.2253 100.197C83.5053 100.197 99.1613 84.3326 99.1613 64.7646C99.1613 45.1966 83.5053 29.3326 64.2253 29.3326ZM64.2253 46.1966C54.1053 46.1966 45.9053 54.5086 45.9053 64.7646C45.9053 75.0206 54.1053 83.3326 64.2253 83.3326C74.3293 83.3326 82.5373 75.0206 82.5373 64.7646C82.5373 54.5086 74.3293 46.1966 64.2253 46.1966ZM106.657 100.053C104.495 100.07 102.427 100.944 100.909 102.485C99.3907 104.026 98.5464 106.106 98.5613 108.269C98.5485 110.43 99.3938 112.508 100.912 114.047C102.43 115.586 104.496 116.46 106.657 116.477C108.819 116.46 110.885 115.586 112.403 114.047C113.921 112.508 114.766 110.43 114.753 108.269C114.768 106.106 113.924 104.026 112.406 102.485C110.888 100.944 108.82 100.07 106.657 100.053Z" fill="#F58D8D"/>
</svg>
